<svg width="150" height="150" viewBox="0 0 150 150" fill="none" xmlns="http://www.w3.org/2000/svg">
<path fill-rule="evenodd" clip-rule="evenodd" d="M36.6086 80.1228C36.5573 80.1253 36.5083 80.1026 36.4769 80.0619C36.4458 80.0213 36.4368 79.9679 36.4529 79.9193C37.3437 77.0613 37.6423 74.0528 37.3305 71.0763C37.3251 71.0213 37.2905 70.9735 37.2402 70.9505C34.2684 69.57 32.3622 66.6068 32.3445 63.3407C32.3381 62.2412 32.5503 61.1513 32.9681 60.1337C32.9902 60.082 32.9825 60.0227 32.9479 59.9784C32.4436 59.3202 31.9051 58.6888 31.3343 58.0868C28.0741 54.6762 23.8198 52.3732 19.1733 51.5035C19.0977 51.4905 19.0428 51.4247 19.044 51.3482C19.0418 51.2752 19.0912 51.2104 19.1625 51.193C25.8166 49.4838 32.8902 50.9764 38.2771 55.2262C38.305 55.2485 38.3396 55.2605 38.3752 55.2604C38.3909 55.2627 38.4066 55.2627 38.4219 55.2604C39.1865 55.0305 39.9809 54.9134 40.7794 54.9125C44.2459 54.9031 47.3653 57.006 48.6455 60.2149C49.9253 63.4238 49.1053 67.086 46.5777 69.4488C46.5405 69.4833 46.5223 69.5338 46.5293 69.5839C46.6626 70.5588 46.7305 71.5415 46.7318 72.5254C46.7318 72.6171 46.7318 72.7071 46.7196 72.7971L46.7088 72.9695C46.7081 73.004 46.6959 73.0373 46.6741 73.0643C44.0616 76.2976 40.5935 78.7392 36.6618 80.1135L36.6086 80.1228ZM8.93938 87.9578C8.89715 87.9581 8.85671 87.9411 8.82716 87.9113C4.05057 83.0751 1.79393 76.307 2.71708 69.5854C2.7241 69.5352 2.70605 69.4848 2.66871 69.4503C-0.18423 66.7862 -0.82702 62.5193 1.11513 59.1383C3.05728 55.7573 7.0762 54.1476 10.8275 55.2478C10.8765 55.2623 10.9295 55.2518 10.9694 55.2198C11.9132 54.473 12.9176 53.8055 13.9723 53.2242C13.9957 53.2116 14.022 53.2051 14.0486 53.2056C18.181 53.8427 22.0513 55.6214 25.2196 58.3399C25.2644 58.378 25.2837 58.4382 25.2695 58.4951C25.2558 58.5535 25.2097 58.5988 25.1509 58.6116C22.1766 59.2796 19.3726 60.5517 16.9142 62.3482C16.8686 62.3809 16.8442 62.4354 16.8503 62.4911C16.8801 62.7738 16.8952 63.0579 16.8954 63.3421C16.8668 67.5203 13.7769 71.0504 9.6254 71.6477C9.56936 71.655 9.52161 71.6917 9.50062 71.744C9.20444 72.4677 8.94088 73.2163 8.7211 73.9695C7.39026 78.4879 7.52007 83.3089 9.09216 87.7496C9.10985 87.7983 9.1021 87.8524 9.07143 87.894C9.04083 87.936 8.99132 87.9597 8.93938 87.9578ZM24.7065 99.5C20.7988 99.5042 17.3979 96.8389 16.4823 93.0547C16.4708 93.0054 16.4359 92.9651 16.3888 92.9462C15.276 92.5004 14.2014 91.9652 13.1755 91.3465C13.1455 91.3285 13.1225 91.3013 13.11 91.2686C11.612 87.3999 11.2281 83.191 12.0015 79.1163C12.0122 79.0583 12.0552 79.0113 12.1122 78.9951H12.1434C12.1907 78.9899 12.2377 79.0065 12.2712 79.0401C14.3368 81.2643 16.8396 83.0414 19.624 84.2613C19.6441 84.27 19.6659 84.2741 19.6879 84.2738C19.7209 84.2738 19.7532 84.2636 19.7799 84.2443C23.4566 81.6137 28.5625 82.3445 31.3468 85.8998C31.3766 85.9385 31.4228 85.9609 31.4716 85.9603H31.4903C32.2606 85.8562 33.0495 85.7089 33.8163 85.5257C38.4168 84.4128 42.5485 81.8849 45.625 78.3009C45.6552 78.266 45.6991 78.246 45.7452 78.2465C45.7712 78.2464 45.7968 78.2528 45.8199 78.2651C45.8849 78.2997 45.9166 78.3748 45.8964 78.4452C44.043 84.9729 39.2939 90.2976 33.0043 92.8994C32.9569 92.9183 32.9223 92.9587 32.9108 93.008C32.0207 96.8069 28.6226 99.4958 24.7065 99.5Z" fill="#FF6300"/>
<path fill-rule="evenodd" clip-rule="evenodd" d="M140.538 55.6277V93.7407H150.001V55.6277H140.538ZM126.07 86.8919C125.729 87.0376 125.096 87.086 124.461 87.086C121.781 87.086 120.319 84.9989 120.319 80.5322C120.319 76.7459 121.733 74.2688 124.364 74.2688C125.047 74.2688 125.779 74.4148 126.07 74.5608V86.8935V86.8919ZM126.07 67.715C125.163 67.4737 124.23 67.3433 123.292 67.3267C115.057 67.3282 110.867 72.5185 110.867 80.6316C110.867 89.6129 115.693 94.3713 124.661 94.3713C129.291 94.3713 133.287 93.5466 135.529 92.4299V55.623H126.072V67.7119L126.07 67.715ZM97.4997 86.5067C97.11 86.6527 96.3788 86.7488 95.5008 86.7488C93.7471 86.7488 92.8207 86.0205 92.8207 84.3695V67.5721H83.3649V84.1274C83.3649 91.4592 87.4107 94.3774 95.5011 94.3774C99.8882 94.3774 104.42 93.6008 106.956 92.4363V67.5721H97.4997V86.5067ZM69.7617 67.1341C68.1621 67.1385 66.5769 67.4349 65.0846 68.0084V55.6277H55.627V93.7407H65.083V74.8061C65.7156 74.5425 66.3959 74.4104 67.0819 74.4179C69.0805 74.4179 69.9569 75.3886 69.9569 77.1854V93.7407H79.4126V76.1649C79.4126 70.3442 76.0996 67.1341 69.7617 67.1341Z" fill="black"/>
</svg>
