<?xml version="1.0" encoding="UTF-8" standalone="no"?>
<svg
   width="150.00101"
   height="49.000015"
   viewBox="0 0 150.00101 49.000015"
   fill="none"
   version="1.1"
   id="svg6"
   xmlns="http://www.w3.org/2000/svg"
   xmlns:svg="http://www.w3.org/2000/svg">
  <defs
     id="defs10" />
  <path
     fill-rule="evenodd"
     clip-rule="evenodd"
     d="m 36.608599,29.622808 c -0.0513,0.0025 -0.1003,-0.0202 -0.1317,-0.0609 -0.0311,-0.0406 -0.0401,-0.094 -0.024,-0.1426 0.8908,-2.858 1.1894,-5.8665 0.8776,-8.843 -0.0054,-0.055 -0.04,-0.1028 -0.0903,-0.1258 -2.9718,-1.3805 -4.878,-4.3437 -4.8957,-7.6098 -0.0064,-1.0995 0.2058,-2.1894 0.6236,-3.2070004 0.0221,-0.0517 0.0144,-0.111 -0.0202,-0.1553 -0.5043,-0.6582 -1.0428,-1.2896 -1.6136,-1.8916 -3.2602,-3.4106 -7.5145,-5.7136 -12.161,-6.5833 -0.0756,-0.013 -0.1305,-0.0788 -0.1293,-0.15529997 -0.0022,-0.073 0.0472,-0.1378 0.1185,-0.1552 6.6541,-1.70920003 13.7277,-0.2166 19.1146,4.03319997 0.0279,0.0223 0.0625,0.0343 0.0981,0.0342 0.0157,0.0023 0.0314,0.0023 0.0467,0 0.7646,-0.2299 1.559,-0.347 2.3575,-0.3479 3.4665,-0.0094 6.5859,2.0935 7.8661,5.3024 1.2798,3.2089004 0.4598,6.8711004 -2.0678,9.2339004 -0.0372,0.0345 -0.0554,0.085 -0.0484,0.1351 0.1333,0.9749 0.2012,1.9576 0.2025,2.9415 0,0.0917 0,0.1817 -0.0122,0.2717 l -0.0108,0.1724 c -7e-4,0.0345 -0.0129,0.0678 -0.0347,0.0948 -2.6125,3.2333 -6.0806,5.6749 -10.0123,7.0492 z m -27.6692196,7.835 c -0.04223,3e-4 -0.08267,-0.0167 -0.11222,-0.0465 -4.77659,-4.8362 -7.03323,-11.6043 -6.11008,-18.3259 0.00702,-0.0502 -0.01103,-0.1006 -0.04837,-0.1351 -2.85293997,-2.6641 -3.49572997,-6.931 -1.55358,-10.3120004 1.94215,-3.381 5.96107,-4.9907 9.7123696,-3.8905 0.049,0.0145 0.102,0.004 0.1419,-0.028 0.9438,-0.7468 1.9482,-1.4143 3.0029,-1.9956 0.0234,-0.0126 0.0497,-0.0191 0.0763,-0.0186 4.1324,0.6371 8.0027,2.4158 11.171,5.1343 0.0448,0.0381 0.0641,0.0983 0.0499,0.1552 -0.0137,0.0584 -0.0598,0.1037 -0.1186,0.1165 -2.9743,0.668 -5.7783,1.9401004 -8.2367,3.7366004 -0.0456,0.0327 -0.07,0.0872 -0.0639,0.1429 0.0298,0.2827 0.0449,0.5668 0.0451,0.851 -0.0286,4.1782 -3.1185,7.7083 -7.2699996,8.3056 -0.05604,0.0073 -0.10379,0.044 -0.12478,0.0963 -0.29618,0.7237 -0.55974,1.4723 -0.77952,2.2255 -1.33084,4.5184 -1.20103,9.3394 0.37106,13.7801 0.01769,0.0487 0.00994,0.1028 -0.02073,0.1444 -0.0306,0.042 -0.08011,0.0657 -0.13205,0.0638 z m 15.7671196,11.5422 c -3.9077,0.0042 -7.3086,-2.6611 -8.2242,-6.4453 -0.0115,-0.0493 -0.0464,-0.0896 -0.0935,-0.1085 -1.1128,-0.4458 -2.1874,-0.981 -3.2133,-1.5997 -0.03,-0.018 -0.053,-0.0452 -0.0655,-0.0779 -1.498,-3.8687 -1.8819,-8.0776 -1.1085,-12.1523 0.0107,-0.058 0.0537,-0.105 0.1107,-0.1212 h 0.0312 c 0.0473,-0.0052 0.0943,0.0114 0.1278,0.045 2.0656,2.2242 4.5684,4.0013 7.3528,5.2212 0.0201,0.0087 0.0419,0.0128 0.0639,0.0125 0.033,0 0.0653,-0.0102 0.092,-0.0295 3.6767,-2.6306 8.7826,-1.8998 11.5669,1.6555 0.0298,0.0387 0.076,0.0611 0.1248,0.0605 h 0.0187 c 0.7703,-0.1041 1.5592,-0.2514 2.326,-0.4346 4.6005,-1.1129 8.7322,-3.6408 11.8087,-7.2248 0.0302,-0.0349 0.0741,-0.0549 0.1202,-0.0544 0.026,-10e-5 0.0516,0.0063 0.0747,0.0186 0.065,0.0346 0.0967,0.1097 0.0765,0.1801 -1.8534,6.5277 -6.6025,11.8524 -12.8921,14.4542 -0.0474,0.0189 -0.082,0.0593 -0.0935,0.1086 -0.8901,3.7989 -4.2882,6.4878 -8.2043,6.492 z"
     fill="#ff6300"
     id="path2" />
  <path
     fill-rule="evenodd"
     clip-rule="evenodd"
     d="M 140.538,5.1277076 V 43.240708 h 9.463 V 5.1277076 Z M 126.07,36.391908 c -0.341,0.1457 -0.974,0.1941 -1.609,0.1941 -2.68,0 -4.142,-2.0871 -4.142,-6.5538 0,-3.7863 1.414,-6.2634 4.045,-6.2634 0.683,0 1.415,0.146 1.706,0.292 v 12.3327 z m 0,-19.1769 c -0.907,-0.2413 -1.84,-0.3717 -2.778,-0.3883 -8.235,0.0015 -12.425,5.1918 -12.425,13.3049 0,8.9813 4.826,13.7397 13.794,13.7397 4.63,0 8.626,-0.8247 10.868,-1.9414 V 5.1230076 h -9.457 V 17.211908 Z m -28.570301,18.7917 c -0.3897,0.146 -1.1209,0.2421 -1.9989,0.2421 -1.7537,0 -2.6801,-0.7283 -2.6801,-2.3793 v -16.7974 h -9.4558 v 16.5553 c 0,7.3318 4.0458,10.25 12.1362,10.25 4.3871,0 8.918901,-0.7766 11.454901,-1.9411 v -24.8642 h -9.456301 z m -27.738,-19.3726 c -1.5996,0.0044 -3.1848,0.3008 -4.6771,0.8743 V 5.1277076 h -9.4576 V 43.240708 h 9.456 v -18.9346 c 0.6326,-0.2636 1.3129,-0.3957 1.9989,-0.3882 1.9986,0 2.875,0.9707 2.875,2.7675 v 16.5553 h 9.4557 v -17.5758 c 0,-5.8207 -3.313,-9.0308 -9.6509,-9.0308 z"
     fill="#000000"
     id="path4" />
</svg>
