<svg width="150" height="150" viewBox="0 0 150 150" fill="none" xmlns="http://www.w3.org/2000/svg">
<path fill-rule="evenodd" clip-rule="evenodd" d="M27.9344 78.8885C27.8952 78.8905 27.8578 78.8732 27.8339 78.8423C27.8102 78.8115 27.8033 78.771 27.8155 78.7341C28.4953 76.5646 28.7232 74.2809 28.4852 72.0215C28.4811 71.9797 28.4547 71.9434 28.4163 71.926C26.1487 70.8781 24.6941 68.6287 24.6807 66.1495C24.6758 65.3149 24.8376 64.4876 25.1565 63.7151C25.1734 63.6759 25.1675 63.6309 25.1411 63.5972C24.7562 63.0976 24.3453 62.6183 23.9098 62.1614C21.4221 59.5725 18.1758 57.8243 14.6303 57.1641C14.5726 57.1542 14.5307 57.1043 14.5316 57.0462C14.5299 56.9908 14.5676 56.9416 14.622 56.9284C19.6995 55.631 25.0971 56.764 29.2075 59.9899C29.2288 60.0068 29.2552 60.016 29.2824 60.0159C29.2943 60.0176 29.3063 60.0176 29.318 60.0159C29.9015 59.8414 30.5076 59.7525 31.1169 59.7518C33.762 59.7447 36.1423 61.341 37.1192 63.7768C38.0957 66.2126 37.47 68.9925 35.5413 70.7861C35.513 70.8123 35.499 70.8506 35.5044 70.8887C35.6061 71.6286 35.658 72.3746 35.6589 73.1215C35.6589 73.1911 35.6589 73.2594 35.6497 73.3278L35.6413 73.4586C35.6409 73.4847 35.6316 73.5101 35.6149 73.5305C33.6214 75.9849 30.9751 77.8383 27.975 78.8814L27.9344 78.8885ZM6.82124 84.8359C6.78901 84.8362 6.75815 84.8233 6.73561 84.8007C3.09081 81.1296 1.36887 75.992 2.07328 70.8898C2.07864 70.8517 2.06487 70.8134 2.03637 70.7873C-0.140578 68.765 -0.631062 65.526 0.850905 62.9595C2.33287 60.3931 5.39953 59.1711 8.26197 60.0063C8.29935 60.0173 8.33984 60.0094 8.37024 59.9851C9.09039 59.4182 9.85684 58.9115 10.6616 58.4702C10.6795 58.4607 10.6995 58.4558 10.7199 58.4561C13.8731 58.9397 16.8263 60.2899 19.2439 62.3535C19.2781 62.3824 19.2928 62.4281 19.282 62.4713C19.2716 62.5156 19.2364 62.55 19.1915 62.5597C16.922 63.0668 14.7824 64.0324 12.9064 65.3961C12.8717 65.4209 12.853 65.4623 12.8577 65.5046C12.8805 65.7192 12.892 65.9348 12.8921 66.1506C12.8703 69.3222 10.5125 72.0018 7.34471 72.4552C7.30194 72.4607 7.26551 72.4886 7.2495 72.5283C7.0235 73.0777 6.82239 73.6459 6.65468 74.2177C5.63917 77.6475 5.73823 81.307 6.93782 84.6779C6.95132 84.7149 6.9454 84.756 6.922 84.7876C6.89865 84.8194 6.86087 84.8374 6.82124 84.8359ZM18.8524 93.5975C15.8706 93.6006 13.2756 91.5775 12.5769 88.705C12.5681 88.6675 12.5415 88.6369 12.5055 88.6226C11.6565 88.2842 10.8364 87.8779 10.0536 87.4082C10.0307 87.3946 10.0132 87.374 10.0036 87.3492C8.8606 84.4125 8.56768 81.2176 9.15778 78.1245C9.16597 78.0805 9.19876 78.0448 9.24223 78.0325H9.26605C9.30216 78.0286 9.33806 78.0412 9.36363 78.0667C10.9398 79.755 12.8495 81.104 14.9742 82.03C14.9896 82.0366 15.0062 82.0397 15.0229 82.0395C15.0481 82.0395 15.0727 82.0317 15.0932 82.0171C17.8987 80.0202 21.7948 80.575 23.9194 83.2738C23.9421 83.3032 23.9773 83.3202 24.0145 83.3197H24.0288C24.6166 83.2407 25.2186 83.1289 25.8037 82.9898C29.3141 82.145 32.4669 80.2262 34.8144 77.5055C34.8374 77.4791 34.8709 77.4639 34.9061 77.4643C34.9259 77.4642 34.9455 77.4691 34.9631 77.4784C35.0127 77.5046 35.0369 77.5616 35.0215 77.6151C33.6073 82.5702 29.9834 86.6121 25.1841 88.5871C25.1479 88.6014 25.1215 88.632 25.1127 88.6695C24.4336 91.5532 21.8406 93.5943 18.8524 93.5975Z" fill="#FF6300"/>
<path fill-rule="evenodd" clip-rule="evenodd" d="M107.238 60.2945V89.2255H114.459V60.2945H107.238ZM96.1983 84.0267C95.9379 84.1373 95.4547 84.1741 94.9706 84.1741C92.9255 84.1741 91.8096 82.5897 91.8096 79.1992C91.8096 76.3251 92.8886 74.4447 94.8968 74.4447C95.4178 74.4447 95.976 74.5555 96.1983 74.6663V84.0279V84.0267ZM96.1983 69.4698C95.5063 69.2866 94.7945 69.1877 94.0784 69.1751C87.7945 69.1762 84.5977 73.1161 84.5977 79.2746C84.5977 86.0922 88.2798 89.7042 95.1229 89.7042C98.6561 89.7042 101.705 89.0782 103.416 88.2305V60.291H96.1995V69.4674L96.1983 69.4698ZM74.3975 83.7343C74.1001 83.8451 73.5422 83.9181 72.8722 83.9181C71.534 83.9181 70.8271 83.3652 70.8271 82.112V69.3614H63.6119V81.9282C63.6119 87.4937 66.6991 89.7088 72.8725 89.7088C76.2201 89.7088 79.6784 89.1193 81.613 88.2354V69.3614H74.3975V83.7343ZM53.2319 69.0289C52.0113 69.0322 50.8017 69.2572 49.663 69.6925V60.2945H42.4463V89.2255H49.6618V74.8526C50.1445 74.6524 50.6636 74.5522 51.1871 74.5579C52.7121 74.5579 53.3808 75.2947 53.3808 76.6587V89.2255H60.5961V75.884C60.5961 71.4656 58.0681 69.0289 53.2319 69.0289Z" fill="black"/>
<path d="M122.797 89.5081H119.33V60.4917H122.797V89.5081Z" fill="#FF6300"/>
<path d="M147.5 89.809L144.82 91.5722L142.26 87.765C141.212 88.1257 140.083 88.326 138.834 88.326C131.376 88.326 127.668 81.6329 127.668 73.3769C127.668 65.1208 131.376 58.4277 138.834 58.4277C146.291 58.4277 150 65.1208 150 73.3769C150 78.9077 148.307 83.7571 144.961 86.3221L147.5 89.809ZM146.533 73.3769C146.533 66.6838 143.913 61.5137 138.834 61.5137C133.755 61.5137 131.135 66.6838 131.135 73.3769C131.135 80.0699 133.755 85.2401 138.834 85.2401C143.913 85.2401 146.533 80.0699 146.533 73.3769Z" fill="#FF6300"/>
</svg>
