<?xml version="1.0" encoding="UTF-8" standalone="no"?>
<svg
   width="150"
   height="15.023727"
   viewBox="0 0 150 15.023727"
   fill="none"
   version="1.1"
   id="svg43"
   sodipodi:docname="Login-Hudl-Statsbomb-Assist.svg"
   xmlns:inkscape="http://www.inkscape.org/namespaces/inkscape"
   xmlns:sodipodi="http://sodipodi.sourceforge.net/DTD/sodipodi-0.dtd"
   xmlns="http://www.w3.org/2000/svg"
   xmlns:svg="http://www.w3.org/2000/svg">
  <sodipodi:namedview
     id="namedview45"
     pagecolor="#ffffff"
     bordercolor="#000000"
     borderopacity="0.25"
     inkscape:showpageshadow="2"
     inkscape:pageopacity="0.0"
     inkscape:pagecheckerboard="0"
     inkscape:deskcolor="#d1d1d1"
     showgrid="false" />
  <g
     clip-path="url(#clip0_272_2149)"
     id="g24"
     transform="translate(0,-68.476074)">
    <path
       fill-rule="evenodd"
       clip-rule="evenodd"
       d="m 11.2499,77.557 c -0.0144,0 -0.0318,-0.0057 -0.0404,-0.02 -0.0087,-0.0115 -0.0115,-0.0287 -0.0087,-0.043 0.2739,-0.8768 0.3662,-1.7995 0.271,-2.7107 0,-0.0172 -0.0115,-0.0315 -0.0287,-0.0373 -0.914,-0.4241 -1.49931,-1.3324 -1.50507,-2.3324 0,-0.3381 0.06337,-0.6705 0.19027,-0.9828 0.0058,-0.0172 0.0058,-0.0344 -0.0058,-0.0487 C 9.96691,71.1815 9.80252,70.9866 9.62666,70.8032 8.62621,69.7574 7.31727,69.0525 5.89013,68.786 5.86707,68.7831 5.84977,68.7631 5.84977,68.7373 c 0,-0.0229 0.01441,-0.043 0.03748,-0.0487 2.04413,-0.5244 4.21795,-0.0659 5.87285,1.2378 0.0087,0.0058 0.0203,0.0115 0.0289,0.0115 0.0058,0 0.0086,0 0.0144,0 0.2335,-0.0716 0.4786,-0.106 0.7236,-0.106 1.064,-0.0029 2.024,0.6418 2.4162,1.6247 0.3921,0.9828 0.1412,2.106 -0.6344,2.831 -0.0115,0.0114 -0.0172,0.0257 -0.0143,0.0401 0.0402,0.298 0.0605,0.5988 0.0634,0.9026 0,0.0286 0,0.0544 -0.0029,0.0831 v 0.0516 c 0,0 -0.0086,0.02 -0.0144,0.0286 -0.8015,0.9914 -1.8683,1.7393 -3.0764,2.1606 H 11.247 Z m -8.50237,2.404 c 0,0 -0.02595,-0.0057 -0.0346,-0.0143 -1.46751,-1.4814 -2.16234,-3.5588 -1.876911,-5.619 0,-0.0144 -0.002883,-0.0315 -0.014416,-0.0401 -0.8793514,-0.8167 -1.075404,-2.1262 -0.478598,-3.1634 0.596806,-1.0373 1.830785,-1.5302 2.984025,-1.192 0.01442,0.0057 0.03172,0 0.04325,-0.0086 0.29119,-0.2293 0.59969,-0.4327 0.9226,-0.6132 0.00577,-0.0029 0.01441,-0.0058 0.02306,-0.0058 1.26858,0.1949 2.45931,0.7393 3.4338,1.5731 0.01442,0.0115 0.02018,0.0316 0.01442,0.0488 -0.00289,0.0172 -0.0173,0.0315 -0.03749,0.0343 -0.91394,0.2035 -1.776,0.596 -2.53137,1.1462 -0.01442,0.0086 -0.02019,0.0258 -0.02019,0.043 0.00866,0.0859 0.01442,0.1748 0.01442,0.2607 -0.00865,1.2809 -0.95719,2.364 -2.23442,2.5474 -0.0173,0 -0.03171,0.0143 -0.03748,0.0286 -0.09226,0.2207 -0.17298,0.4528 -0.2393,0.682 -0.40941,1.384 -0.36904,2.8626 0.11532,4.2235 0.00578,0.0144 0.00289,0.0316 -0.00576,0.043 -0.00865,0.0115 -0.02594,0.0201 -0.04036,0.0201 z m 4.84364,3.5388 c -1.19938,0 -2.24595,-0.8166 -2.52849,-1.9771 C 5.05979,81.5083 5.04826,81.494 5.03384,81.4883 4.69075,81.3508 4.36207,81.1874 4.04781,80.9983 4.03916,80.9926 4.03052,80.984 4.02763,80.9754 3.56633,79.7892 3.44812,78.4997 3.68742,77.2504 c 0.00289,-0.0172 0.0173,-0.0315 0.0346,-0.0372 h 0.00865 c 0.01442,0 0.02883,0.0028 0.04036,0.0143 0.63429,0.6819 1.40408,1.2264 2.26037,1.6018 0.00577,0 0.01153,0.0028 0.02019,0.0028 0.01153,0 0.02017,-0.0029 0.02883,-0.0086 1.13018,-0.8052 2.6986,-0.5817 3.55488,0.5072 0.00865,0.0114 0.02307,0.02 0.03748,0.0171 h 0.00577 c 0.23642,-0.0315 0.47855,-0.0773 0.71495,-0.1347 1.4128,-0.341 2.6842,-1.1174 3.6299,-2.2149 0.0087,-0.0115 0.0231,-0.0172 0.0375,-0.0172 0.0087,0 0.0173,0 0.0231,0.0057 0.0201,0.0115 0.0288,0.0344 0.023,0.0545 -0.5708,2.0001 -2.0297,3.6333 -3.9614,4.4299 -0.0144,0.0057 -0.026,0.0172 -0.0288,0.0344 -0.27392,1.1634 -1.31761,1.9886 -2.51987,1.9914 z"
       fill="#ff6300"
       id="path2" />
    <path
       d="M 24.1972,81.5232 H 21.2885 V 76.431 c 0,-0.5525 -0.2699,-0.8511 -0.8846,-0.8511 -0.225,0 -0.4498,0.0448 -0.6148,0.1194 v 5.8239 H 16.8804 V 69.8008 h 2.9087 v 3.8079 c 0.4198,-0.1643 0.9296,-0.2688 1.4394,-0.2688 1.9492,0 2.9687,0.9856 2.9687,2.7775 z M 32.8639,81.12 c -0.7797,0.3584 -2.174,0.5973 -3.5235,0.5973 -2.4889,0 -3.7334,-0.8959 -3.7334,-3.1508 v -5.0922 h 2.9088 v 5.1668 c 0,0.5077 0.2849,0.7317 0.8246,0.7317 0.2699,0 0.4948,-0.0298 0.6148,-0.0746 v -5.8239 h 2.9087 z m 8.7431,0 c -0.6897,0.3435 -1.9192,0.5973 -3.3435,0.5973 -2.7588,0 -4.2432,-1.4634 -4.2432,-4.226 0,-2.4938 1.2894,-4.0917 3.8233,-4.0917 0.2849,0 0.6447,0.0598 0.8546,0.1195 v -3.7183 h 2.9088 z m -2.9088,-1.7023 v -3.793 c -0.0899,-0.0448 -0.3149,-0.0896 -0.5248,-0.0896 -0.8095,0 -1.2444,0.7615 -1.2444,1.9263 0,1.3738 0.4498,2.016 1.2744,2.016 0.195,0 0.3899,-0.015 0.4948,-0.0597 z m 7.3002,2.1055 H 43.0897 V 69.8008 h 2.9087 z"
       fill="#000000"
       id="path4" />
    <path
       d="m 49.733,81.6875 c 1.9041,0 3.0136,-0.9258 3.0136,-2.3147 0,-1.5082 -1.1395,-1.9562 -2.3389,-2.4042 -0.8547,-0.3135 -1.5894,-0.6122 -1.5894,-1.4933 0,-0.672 0.5548,-1.1946 1.5293,-1.1946 0.6448,0 1.2446,0.1941 1.6943,0.4778 l 0.4349,-0.881 C 51.862,73.5191 51.0523,73.31 50.2277,73.31 c -1.7092,0 -2.6838,0.911 -2.6838,2.1653 0,1.4485 1.1245,1.9562 2.264,2.3744 0.9446,0.3435 1.6343,0.672 1.6343,1.5231 0,0.7915 -0.6897,1.2992 -1.7242,1.2992 -0.6448,0 -1.3944,-0.209 -1.9343,-0.5077 L 47.334,81.12 c 0.7197,0.3734 1.5593,0.5675 2.399,0.5675 z"
       fill="#ff6300"
       id="path6" />
    <path
       d="m 56.6185,81.6128 c 0.3449,0 0.6598,-0.0598 0.8247,-0.1344 v -1.0453 c -0.12,0.0448 -0.3299,0.0746 -0.5248,0.0746 -0.6597,0 -1.2144,-0.3136 -1.2144,-1.1349 v -4.9577 h 1.7392 V 73.4743 H 55.704 v -2.3445 l -1.2145,0.4032 v 1.9413 H 53.32 v 0.9408 h 1.1695 v 5.0175 c 0,1.4634 0.8097,2.1802 2.129,2.1802 z"
       fill="#ff6300"
       id="path8" />
    <path
       d="m 68.5091,81.6128 c 0.3448,0 0.6597,-0.0598 0.8246,-0.1344 v -1.0453 c -0.1199,0.0448 -0.3298,0.0746 -0.5247,0.0746 -0.6598,0 -1.2145,-0.3136 -1.2145,-1.1349 v -4.9577 h 1.7392 V 73.4743 H 67.5945 V 71.1298 L 66.38,71.533 v 1.9413 h -1.1695 v 0.9408 H 66.38 v 5.0175 c 0,1.4634 0.8097,2.1802 2.1291,2.1802 z"
       fill="#ff6300"
       id="path10" />
    <path
       d="m 72.3426,81.6875 c 1.9042,0 3.0138,-0.9258 3.0138,-2.3147 0,-1.5082 -1.1396,-1.9562 -2.3391,-2.4042 -0.8546,-0.3135 -1.5893,-0.6122 -1.5893,-1.4933 0,-0.672 0.5548,-1.1946 1.5294,-1.1946 0.6446,0 1.2444,0.1941 1.6943,0.4778 l 0.4347,-0.881 C 74.4718,73.5191 73.6621,73.31 72.8374,73.31 c -1.7093,0 -2.6839,0.911 -2.6839,2.1653 0,1.4485 1.1246,1.9562 2.2641,2.3744 0.9446,0.3435 1.6343,0.672 1.6343,1.5231 0,0.7915 -0.6897,1.2992 -1.7243,1.2992 -0.6447,0 -1.3944,-0.209 -1.9341,-0.5077 L 69.9436,81.12 c 0.7197,0.3734 1.5594,0.5675 2.399,0.5675 z"
       fill="#ff6300"
       id="path12" />
    <path
       d="m 101.689,81.5232 h 1.244 v -5.6447 c 0,-1.5679 -1.095,-2.5685 -2.759,-2.5685 -1.184,0 -2.1436,0.463 -2.6384,0.9259 -0.4347,-0.5077 -1.3044,-0.9259 -2.5638,-0.9259 -1.0496,0 -2.0091,0.239 -2.7889,0.5675 v 7.6457 h 1.2596 v -6.914 c 0.4048,-0.1642 0.9595,-0.2837 1.6042,-0.2837 1.1245,0 1.8892,0.5525 1.8892,1.4634 v 5.7343 h 1.2445 v -6.5108 c 0.3898,-0.4181 1.0045,-0.6869 1.7546,-0.6869 1.019,0 1.754,0.6122 1.754,1.6575 z"
       fill="#ff6300"
       id="path14" />
    <path
       fill-rule="evenodd"
       clip-rule="evenodd"
       d="m 64.3187,81.12 c -0.5698,0.3136 -1.7243,0.5675 -2.7888,0.5675 -2.219,0 -3.3286,-0.9409 -3.3286,-2.4639 0,-2.2998 2.4889,-2.6432 4.9329,-2.7777 v -0.6122 c 0,-1.1946 -0.7947,-1.5679 -1.9192,-1.5679 -0.7496,0 -1.6793,0.2389 -2.204,0.4927 l -0.3299,-0.881 c 0.6148,-0.2837 1.6343,-0.5675 2.6388,-0.5675 1.8143,0 2.9988,0.7168 2.9988,2.6283 z m -1.1845,-3.808 v 3.1808 c -0.2849,0.1344 -1.0196,0.2538 -1.6343,0.2538 -1.4094,0 -2.1141,-0.6122 -2.1141,-1.553 0,-1.6638 1.9291,-1.7759 3.7205,-1.8799 z"
       fill="#ff6300"
       id="path16" />
    <path
       fill-rule="evenodd"
       clip-rule="evenodd"
       d="m 83.0498,77.342 c 0,3.0313 -1.6192,4.3455 -3.8832,4.3455 -0.9896,0 -1.9493,-0.2539 -2.5639,-0.5675 V 69.8008 h 1.2594 v 3.9124 c 0.4198,-0.1941 1.0645,-0.3584 1.6793,-0.3584 2.0841,0 3.5084,1.5083 3.5084,3.9872 z m -3.6733,-3.0016 c 1.4543,0 2.4139,1.1499 2.4139,3.0762 0,2.3147 -1.1245,3.2554 -2.5639,3.2554 -0.5547,0 -1.0945,-0.1195 -1.3644,-0.2538 v -5.7493 c 0.3748,-0.1941 0.9746,-0.3285 1.5144,-0.3285 z"
       fill="#ff6300"
       id="path18" />
    <path
       fill-rule="evenodd"
       clip-rule="evenodd"
       d="m 90.8867,77.4913 c 0,2.3892 -1.1995,4.1962 -3.4334,4.1962 -2.234,0 -3.4335,-1.807 -3.4335,-4.1962 0,-2.3893 1.1995,-4.1813 3.4335,-4.1813 2.2339,0 3.4334,1.792 3.4334,4.1813 z m -3.4334,-3.1658 c 1.4693,0 2.189,1.2992 2.189,3.1508 0,1.8517 -0.7197,3.1808 -2.189,3.1808 -1.4694,0 -2.1891,-1.3291 -2.1891,-3.1808 0,-1.8516 0.7197,-3.1508 2.1891,-3.1508 z"
       fill="#ff6300"
       id="path20" />
    <path
       fill-rule="evenodd"
       clip-rule="evenodd"
       d="m 110.974,77.342 c 0,3.0313 -1.619,4.3455 -3.883,4.3455 -0.989,0 -1.949,-0.2539 -2.564,-0.5675 V 69.8008 h 1.259 v 3.9124 c 0.42,-0.1941 1.065,-0.3584 1.679,-0.3584 2.085,0 3.509,1.5083 3.509,3.9872 z M 107.3,74.3404 c 1.455,0 2.415,1.1499 2.415,3.0762 0,2.3147 -1.125,3.2554 -2.564,3.2554 -0.555,0 -1.095,-0.1195 -1.365,-0.2538 v -5.7493 c 0.375,-0.1941 0.975,-0.3285 1.514,-0.3285 z"
       fill="#ff6300"
       id="path22" />
  </g>
  <path
     d="m 150,5.0503258 v 1.0223 h -2.064 v 5.0566002 h -1.289 V 6.0726258 h -2.074 v -1.0223 z"
     fill="#000000"
     id="path26" />
  <path
     d="m 141.35,4.9580258 c 0.56,0 1.052,0.0952 1.476,0.2855 0.423,0.1904 0.785,0.4728 1.084,0.8474 l -0.72,0.8197 c -0.255,-0.3193 -0.535,-0.5526 -0.841,-0.7 -0.298,-0.1535 -0.647,-0.2302 -1.046,-0.2302 -0.261,0 -0.479,0.0337 -0.654,0.1013 -0.168,0.0675 -0.292,0.1565 -0.373,0.2671 -0.075,0.1105 -0.112,0.2333 -0.112,0.3684 0,0.1658 0.065,0.307 0.196,0.4237 0.13,0.1105 0.355,0.2026 0.672,0.2763 l 1.149,0.2579 c 0.611,0.1351 1.047,0.3377 1.308,0.6079 0.268,0.264 0.402,0.6079 0.402,1.0316 0,0.3991 -0.106,0.7429002 -0.318,1.0315002 -0.212,0.2825 -0.507,0.5005 -0.887,0.654 -0.38,0.1474 -0.816,0.221 -1.308,0.221 -0.43,0 -0.825,-0.0491 -1.186,-0.1473 -0.355,-0.1044 -0.673,-0.2456 -0.953,-0.4237 -0.281,-0.1781 -0.514,-0.3838 -0.701,-0.6171 l 0.729,-0.8566002 c 0.143,0.1965 0.32,0.3715 0.532,0.525 0.212,0.1535 0.452,0.2763 0.72,0.3684002 0.274,0.086 0.56,0.129 0.859,0.129 0.255,0 0.47,-0.0277 0.645,-0.0829 0.18,-0.0614 0.314,-0.1443002 0.401,-0.2487002 0.094,-0.1105 0.14,-0.2426 0.14,-0.3961 0,-0.1596 -0.056,-0.2947 -0.168,-0.4052 -0.106,-0.1167 -0.305,-0.2057 -0.598,-0.2671 l -1.251,-0.2763 c -0.362,-0.086 -0.673,-0.1965 -0.935,-0.3316 -0.255,-0.1413 -0.451,-0.3193 -0.588,-0.5342 -0.131,-0.2211 -0.196,-0.4821 -0.196,-0.7829 0,-0.3623 0.099,-0.6877 0.299,-0.9763 0.199,-0.2886 0.485,-0.5158 0.859,-0.6816 0.38,-0.172 0.835,-0.2579 1.364,-0.2579 z"
     fill="#000000"
     id="path28" />
  <path
     d="M 137.309,5.0503258 V 11.129226 H 136.02 V 5.0503258 Z"
     fill="#000000"
     id="path30" />
  <path
     d="m 132.072,4.9580258 c 0.561,0 1.053,0.0952 1.476,0.2855 0.424,0.1904 0.785,0.4728 1.084,0.8474 l -0.72,0.8197 c -0.255,-0.3193 -0.535,-0.5526 -0.84,-0.7 -0.299,-0.1535 -0.648,-0.2302 -1.047,-0.2302 -0.261,0 -0.479,0.0337 -0.654,0.1013 -0.168,0.0675 -0.292,0.1565 -0.373,0.2671 -0.075,0.1105 -0.112,0.2333 -0.112,0.3684 0,0.1658 0.065,0.307 0.196,0.4237 0.131,0.1105 0.355,0.2026 0.672,0.2763 l 1.149,0.2579 c 0.611,0.1351 1.047,0.3377 1.308,0.6079 0.268,0.264 0.402,0.6079 0.402,1.0316 0,0.3991 -0.106,0.7429002 -0.318,1.0315002 -0.211,0.2825 -0.507,0.5005 -0.887,0.654 -0.38,0.1474 -0.816,0.221 -1.308,0.221 -0.43,0 -0.825,-0.0491 -1.186,-0.1473 -0.355,-0.1044 -0.673,-0.2456 -0.953,-0.4237 -0.28,-0.1781 -0.514,-0.3838 -0.701,-0.6171 l 0.729,-0.8566002 c 0.143,0.1965 0.321,0.3715 0.532,0.525 0.212,0.1535 0.452,0.2763 0.72,0.3684002 0.274,0.086 0.56,0.129 0.859,0.129 0.255,0 0.47,-0.0277 0.645,-0.0829 0.18,-0.0614 0.314,-0.1443002 0.401,-0.2487002 0.094,-0.1105 0.14,-0.2426 0.14,-0.3961 0,-0.1596 -0.056,-0.2947 -0.168,-0.4052 -0.106,-0.1167 -0.305,-0.2057 -0.598,-0.2671 l -1.251,-0.2763 c -0.362,-0.086 -0.673,-0.1965 -0.934,-0.3316 -0.256,-0.1413 -0.452,-0.3193 -0.589,-0.5342 -0.131,-0.2211 -0.196,-0.4821 -0.196,-0.7829 0,-0.3623 0.099,-0.6877 0.299,-0.9763 0.199,-0.2886 0.486,-0.5158 0.859,-0.6816 0.38,-0.172 0.835,-0.2579 1.364,-0.2579 z"
     fill="#000000"
     id="path32" />
  <path
     d="m 125.874,4.9580258 c 0.56,0 1.052,0.0952 1.476,0.2855 0.423,0.1904 0.785,0.4728 1.083,0.8474 l -0.719,0.8197 c -0.255,-0.3193 -0.535,-0.5526 -0.841,-0.7 -0.299,-0.1535 -0.647,-0.2302 -1.046,-0.2302 -0.261,0 -0.479,0.0337 -0.654,0.1013 -0.168,0.0675 -0.292,0.1565 -0.373,0.2671 -0.075,0.1105 -0.113,0.2333 -0.113,0.3684 0,0.1658 0.066,0.307 0.197,0.4237 0.13,0.1105 0.355,0.2026 0.672,0.2763 l 1.149,0.2579 c 0.611,0.1351 1.046,0.3377 1.308,0.6079 0.268,0.264 0.402,0.6079 0.402,1.0316 0,0.3991 -0.106,0.7429002 -0.318,1.0315002 -0.212,0.2825 -0.507,0.5005 -0.887,0.654 -0.38,0.1474 -0.816,0.221 -1.308,0.221 -0.43,0 -0.825,-0.0491 -1.187,-0.1473 -0.355,-0.1044 -0.672,-0.2456 -0.952,-0.4237 -0.281,-0.1781 -0.514,-0.3838 -0.701,-0.6171 l 0.729,-0.8566002 c 0.143,0.1965 0.32,0.3715 0.532,0.525 0.212,0.1535 0.452,0.2763 0.719,0.3684002 0.274,0.086 0.561,0.129 0.86,0.129 0.255,0 0.47,-0.0277 0.644,-0.0829 0.181,-0.0614 0.315,-0.1443002 0.402,-0.2487002 0.094,-0.1105 0.14,-0.2426 0.14,-0.3961 0,-0.1596 -0.056,-0.2947 -0.168,-0.4052 -0.106,-0.1167 -0.305,-0.2057 -0.598,-0.2671 l -1.252,-0.2763 c -0.361,-0.086 -0.672,-0.1965 -0.934,-0.3316 -0.255,-0.1413 -0.451,-0.3193 -0.588,-0.5342 -0.131,-0.2211 -0.196,-0.4821 -0.196,-0.7829 0,-0.3623 0.099,-0.6877 0.299,-0.9763 0.199,-0.2886 0.485,-0.5158 0.859,-0.6816 0.38,-0.172 0.834,-0.2579 1.364,-0.2579 z"
     fill="#000000"
     id="path34" />
  <path
     d="m 122.566,11.129226 h -1.335 l -0.514,-1.4829002 h -2.364 l -0.513,1.4829002 h -1.318 l 2.252,-6.0789002 h 1.541 z m -3.923,-2.4224002 h 1.784 l -0.897,-2.6526 z"
     fill="#000000"
     id="path36" />
  <defs
     id="defs41">
    <clipPath
       id="clip0_272_2149">
      <rect
         width="112.039"
         height="17"
         fill="#ffffff"
         transform="translate(0,66.5)"
         id="rect38"
         x="0"
         y="0" />
    </clipPath>
  </defs>
</svg>
