<?xml version="1.0" encoding="UTF-8" standalone="no"?>
<svg
   width="149.13785"
   height="16.791039"
   viewBox="0 0 149.13785 16.791039"
   fill="none"
   version="1.1"
   id="svg39"
   sodipodi:docname="Login-Hudl-Statsbomb-Live.svg"
   xmlns:inkscape="http://www.inkscape.org/namespaces/inkscape"
   xmlns:sodipodi="http://sodipodi.sourceforge.net/DTD/sodipodi-0.dtd"
   xmlns="http://www.w3.org/2000/svg"
   xmlns:svg="http://www.w3.org/2000/svg">
  <sodipodi:namedview
     id="namedview41"
     pagecolor="#ffffff"
     bordercolor="#000000"
     borderopacity="0.25"
     inkscape:showpageshadow="2"
     inkscape:pageopacity="0.0"
     inkscape:pagecheckerboard="0"
     inkscape:deskcolor="#d1d1d1"
     showgrid="false" />
  <g
     clip-path="url(#clip0_272_1964)"
     id="g24"
     transform="translate(-0.43115252,-67.708961)">
    <path
       fill-rule="evenodd"
       clip-rule="evenodd"
       d="m 12.8647,77.8583 c -0.0159,0 -0.0351,-0.0064 -0.0446,-0.0225 -0.0096,-0.0128 -0.0127,-0.032 -0.0096,-0.048 0.3028,-0.9799 0.4048,-2.0112 0.2996,-3.0296 0,-0.0192 -0.0127,-0.0352 -0.0318,-0.0416 -1.0102,-0.474 -1.6571,-1.4892 -1.6634,-2.6069 0,-0.3779 0.0701,-0.7493 0.2102,-1.0984 0.0065,-0.0192 0.0065,-0.0384 -0.0063,-0.0545 -0.172,-0.2241 -0.3537,-0.4419 -0.5481,-0.6469 C 9.96503,69.141 8.51836,68.3532 6.94105,68.0554 6.91556,68.0522 6.89644,68.0298 6.89644,68.0009 c 0,-0.0256 0.01593,-0.048 0.04143,-0.0544 2.25922,-0.5861 4.66183,-0.0737 6.49083,1.3835 0.0095,0.0064 0.0224,0.0128 0.0319,0.0128 0.0064,0 0.0096,0 0.0159,0 0.2581,-0.0801 0.529,-0.1185 0.7998,-0.1185 1.1759,-0.0032 2.2369,0.7174 2.6704,1.8158 0.4333,1.0985 0.156,2.3538 -0.7011,3.1641 -0.0127,0.0128 -0.0191,0.0288 -0.0159,0.0448 0.0445,0.3331 0.0669,0.6693 0.0701,1.0088 0,0.032 0,0.0608 -0.0032,0.0929 v 0.0576 c 0,0 -0.0095,0.0224 -0.0159,0.032 -0.8859,1.1081 -2.0649,1.944 -3.4001,2.4148 h -0.0191 z m -9.39692,2.6868 c 0,0 -0.02868,-0.0064 -0.03824,-0.016 -1.62192,-1.6557 -2.38986,-3.9775 -2.0744,-6.2801 0,-0.016 -0.00319,-0.0352 -0.01593,-0.0448 C 0.367328,73.2915 0.150646,71.8279 0.810249,70.6686 1.46985,69.5093 2.83367,68.9585 4.10826,69.3364 c 0.01594,0.0064 0.03505,0 0.0478,-0.0096 0.32183,-0.2562 0.66279,-0.4836 1.01968,-0.6854 0.00637,-0.0032 0.01592,-0.0064 0.02549,-0.0064 1.40205,0.2178 2.71807,0.8263 3.7951,1.7582 0.01593,0.0128 0.02231,0.0352 0.01593,0.0544 -0.00319,0.0193 -0.01911,0.0353 -0.04142,0.0385 -1.01012,0.2274 -1.96288,0.6661 -2.79773,1.281 -0.01594,0.0096 -0.02231,0.0288 -0.02231,0.048 0.00956,0.0961 0.01593,0.1954 0.01593,0.2914 -0.00956,1.4316 -1.05791,2.6421 -2.46953,2.8471 -0.01911,0 -0.03505,0.016 -0.04142,0.032 -0.10197,0.2466 -0.19118,0.506 -0.26448,0.7622 -0.45248,1.5468 -0.40787,3.1993 0.12746,4.7204 0.00638,0.0161 0.00319,0.0353 -0.00638,0.0481 -0.00955,0.0128 -0.02867,0.0224 -0.0446,0.0224 z m 5.35329,3.9551 C 7.4955,84.5002 6.3388,83.5875 6.02653,82.2905 6.02334,82.2744 6.01059,82.2584 5.99466,82.252 5.61547,82.0984 5.25221,81.9158 4.90488,81.7044 4.89532,81.698 4.88577,81.6884 4.88257,81.6788 4.37274,80.353 4.24209,78.9119 4.50657,77.5156 4.50976,77.4964 4.52569,77.4804 4.54481,77.474 h 0.00956 c 0.01594,0 0.03186,0.0032 0.04461,0.016 0.70102,0.7621 1.55182,1.3706 2.49821,1.7902 0.00637,0 0.01274,0.0032 0.02231,0.0032 0.01274,0 0.02229,-0.0032 0.03186,-0.0096 1.2491,-0.9 2.98254,-0.6502 3.92894,0.5668 0.0096,0.0128 0.0255,0.0224 0.0414,0.0192 h 0.0064 c 0.2613,-0.0352 0.5289,-0.0865 0.7902,-0.1506 1.5614,-0.3811 2.9666,-1.2489 4.0119,-2.4755 0.0095,-0.0128 0.0254,-0.0192 0.0413,-0.0192 0.0097,0 0.0192,0 0.0256,0.0064 0.0222,0.0128 0.0318,0.0384 0.0254,0.0609 -0.6309,2.2353 -2.2433,4.0608 -4.3782,4.951 -0.0159,0.0064 -0.0287,0.0192 -0.0319,0.0384 -0.3027,1.3003 -1.4562,2.2226 -2.78496,2.2258 z"
       fill="#ff6300"
       id="path2" />
    <path
       d="m 27.1742,82.2905 h -3.2148 v -5.6913 c 0,-0.6175 -0.2984,-0.9513 -0.9777,-0.9513 -0.2487,0 -0.4972,0.0501 -0.6795,0.1336 v 6.509 H 19.0874 V 69.189 h 3.2148 v 4.2559 c 0.464,-0.1836 1.0274,-0.3004 1.5908,-0.3004 2.1543,0 3.2812,1.1015 3.2812,3.1043 z m 9.5786,-0.4506 c -0.8618,0.4006 -2.4029,0.6675 -3.8943,0.6675 -2.7507,0 -4.1262,-1.0013 -4.1262,-3.5215 v -5.6912 h 3.2148 v 5.7746 c 0,0.5675 0.3149,0.8178 0.9114,0.8178 0.2983,0 0.5469,-0.0334 0.6795,-0.0834 v -6.509 h 3.2148 z m 9.663,0 c -0.7623,0.3839 -2.1211,0.6675 -3.6954,0.6675 -3.049,0 -4.6896,-1.6355 -4.6896,-4.7231 0,-2.7873 1.4251,-4.5731 4.2256,-4.5731 0.3149,0 0.7126,0.0668 0.9445,0.1335 V 69.189 h 3.2149 z M 43.2009,79.9373 V 75.698 c -0.0993,-0.0501 -0.348,-0.1001 -0.5799,-0.1001 -0.8948,0 -1.3754,0.8512 -1.3754,2.1529 0,1.5355 0.4972,2.2532 1.4085,2.2532 0.2155,0 0.4309,-0.0167 0.5468,-0.0667 z m 8.0684,2.3532 H 48.0545 V 69.189 h 3.2148 z"
       fill="#000000"
       id="path4" />
    <path
       d="m 55.397,82.4741 c 2.1045,0 3.3307,-1.0347 3.3307,-2.587 0,-1.6856 -1.2593,-2.1863 -2.585,-2.6871 -0.9446,-0.3504 -1.7566,-0.6842 -1.7566,-1.6689 0,-0.751 0.6132,-1.3352 1.6902,-1.3352 0.7126,0 1.3755,0.217 1.8726,0.5341 l 0.4806,-0.9847 c -0.6794,-0.4006 -1.5743,-0.6342 -2.4856,-0.6342 -1.8892,0 -2.9663,1.0181 -2.9663,2.42 0,1.6189 1.2429,2.1864 2.5022,2.6537 1.044,0.3839 1.8063,0.7511 1.8063,1.7023 0,0.8846 -0.7623,1.4521 -1.9057,1.4521 -0.7126,0 -1.5411,-0.2337 -2.1377,-0.5675 l -0.4971,1.0682 c 0.7954,0.4172 1.7234,0.6342 2.6514,0.6342 z"
       fill="#ff6300"
       id="path6" />
    <path
       d="m 63.0071,82.3907 c 0.3811,0 0.7291,-0.0668 0.9114,-0.1502 v -1.1683 c -0.1326,0.05 -0.3645,0.0834 -0.58,0.0834 -0.7291,0 -1.3422,-0.3505 -1.3422,-1.2685 v -5.541 h 1.9222 V 73.2947 H 61.9963 V 70.6744 L 60.654,71.125 v 2.1697 h -1.2925 v 1.0514 h 1.2925 v 5.6078 c 0,1.6356 0.8949,2.4368 2.3531,2.4368 z"
       fill="#ff6300"
       id="path8" />
    <path
       d="m 76.1488,82.3907 c 0.3811,0 0.7291,-0.0668 0.9114,-0.1502 v -1.1683 c -0.1326,0.05 -0.3646,0.0834 -0.58,0.0834 -0.7291,0 -1.3422,-0.3505 -1.3422,-1.2685 v -5.541 h 1.9222 V 73.2947 H 75.138 v -2.6203 l -1.3423,0.4506 v 2.1697 h -1.2926 v 1.0514 h 1.2926 v 5.6078 c 0,1.6356 0.8949,2.4368 2.3531,2.4368 z"
       fill="#ff6300"
       id="path10" />
    <path
       d="m 80.3857,82.4741 c 2.1045,0 3.3308,-1.0347 3.3308,-2.587 0,-1.6856 -1.2594,-2.1863 -2.5851,-2.6871 -0.9446,-0.3504 -1.7565,-0.6842 -1.7565,-1.6689 0,-0.751 0.6131,-1.3352 1.6902,-1.3352 0.7125,0 1.3754,0.217 1.8726,0.5341 l 0.4805,-0.9847 c -0.6794,-0.4006 -1.5742,-0.6342 -2.4857,-0.6342 -1.8891,0 -2.9662,1.0181 -2.9662,2.42 0,1.6189 1.2428,2.1864 2.5023,2.6537 1.0439,0.3839 1.8062,0.7511 1.8062,1.7023 0,0.8846 -0.7623,1.4521 -1.9057,1.4521 -0.7126,0 -1.5411,-0.2337 -2.1376,-0.5675 l -0.4972,1.0682 c 0.7954,0.4172 1.7234,0.6342 2.6514,0.6342 z"
       fill="#ff6300"
       id="path12" />
    <path
       d="m 112.819,82.2905 h 1.376 v -6.3088 c 0,-1.7524 -1.21,-2.8706 -3.049,-2.8706 -1.309,0 -2.37,0.5174 -2.916,1.0348 -0.481,-0.5675 -1.442,-1.0348 -2.834,-1.0348 -1.16,0 -2.221,0.267 -3.082,0.6342 v 8.5452 h 1.392 v -7.7274 c 0.447,-0.1836 1.06,-0.3171 1.773,-0.3171 1.243,0 2.088,0.6175 2.088,1.6356 v 6.4089 h 1.375 v -7.2768 c 0.431,-0.4673 1.11,-0.7677 1.939,-0.7677 1.127,0 1.938,0.6843 1.938,1.8526 z"
       fill="#ff6300"
       id="path14" />
    <path
       fill-rule="evenodd"
       clip-rule="evenodd"
       d="m 71.5174,81.8399 c -0.6296,0.3504 -1.9056,0.6342 -3.0822,0.6342 -2.4525,0 -3.6788,-1.0515 -3.6788,-2.7538 0,-2.5703 2.7508,-2.9542 5.4519,-3.1044 v -0.6842 c 0,-1.3352 -0.8783,-1.7525 -2.1211,-1.7525 -0.8285,0 -1.856,0.2671 -2.436,0.5508 l -0.3645,-0.9847 c 0.6794,-0.3171 1.8063,-0.6342 2.9164,-0.6342 2.0052,0 3.3143,0.8011 3.3143,2.9374 z m -1.3091,-4.256 v 3.555 c -0.3149,0.1502 -1.1268,0.2837 -1.8062,0.2837 -1.5578,0 -2.3366,-0.6843 -2.3366,-1.7358 0,-1.8595 2.1321,-1.9848 4.112,-2.1011 z"
       fill="#ff6300"
       id="path16" />
    <path
       fill-rule="evenodd"
       clip-rule="evenodd"
       d="m 92.2195,77.6174 c 0,3.3879 -1.7896,4.8567 -4.2918,4.8567 -1.0938,0 -2.1544,-0.2838 -2.8337,-0.6342 V 69.189 h 1.3919 v 4.3727 c 0.464,-0.217 1.1766,-0.4006 1.856,-0.4006 2.3034,0 3.8776,1.6857 3.8776,4.4563 z m -4.0599,-3.3547 c 1.6074,0 2.668,1.2851 2.668,3.4381 0,2.587 -1.2429,3.6384 -2.8337,3.6384 -0.6131,0 -1.2096,-0.1336 -1.508,-0.2837 v -6.4256 c 0.4143,-0.217 1.0772,-0.3672 1.6737,-0.3672 z"
       fill="#ff6300"
       id="path18" />
    <path
       fill-rule="evenodd"
       clip-rule="evenodd"
       d="m 100.881,77.7843 c 0,2.6703 -1.3257,4.6898 -3.7947,4.6898 -2.4691,0 -3.7948,-2.0195 -3.7948,-4.6898 0,-2.6704 1.3257,-4.6732 3.7948,-4.6732 2.469,0 3.7947,2.0028 3.7947,4.6732 z M 97.0863,74.246 c 1.6239,0 2.4193,1.452 2.4193,3.5215 0,2.0696 -0.7954,3.555 -2.4193,3.555 -1.624,0 -2.4194,-1.4854 -2.4194,-3.555 0,-2.0695 0.7954,-3.5215 2.4194,-3.5215 z"
       fill="#ff6300"
       id="path20" />
    <path
       fill-rule="evenodd"
       clip-rule="evenodd"
       d="m 123.082,77.6174 c 0,3.3879 -1.79,4.8567 -4.292,4.8567 -1.093,0 -2.154,-0.2838 -2.834,-0.6342 V 69.189 h 1.392 v 4.3727 c 0.464,-0.217 1.177,-0.4006 1.856,-0.4006 2.304,0 3.878,1.6857 3.878,4.4563 z m -4.06,-3.3547 c 1.608,0 2.668,1.2851 2.668,3.4381 0,2.587 -1.242,3.6384 -2.834,3.6384 -0.613,0 -1.21,-0.1336 -1.508,-0.2837 v -6.4256 c 0.415,-0.217 1.077,-0.3672 1.674,-0.3672 z"
       fill="#ff6300"
       id="path22" />
  </g>
  <path
     d="M 144.33585,11.561039 V 5.2910385 h 4.67 v 1.0545 h -3.368 v 1.558 h 2.651 v 1.007 h -2.651 v 1.5960005 h 3.5 v 1.0545 z"
     fill="#000000"
     id="path26" />
  <path
     d="m 143.20385,5.2910385 -2.264,6.2700005 h -1.519 l -2.274,-6.2700005 h 1.378 l 1.311,3.99 0.358,1.2350005 0.35,-1.2255005 1.32,-3.9995 z"
     fill="#000000"
     id="path28" />
  <path
     d="m 136.01885,5.2910385 v 6.2700005 h -1.302 V 5.2910385 Z"
     fill="#000000"
     id="path30" />
  <path
     d="m 130.16385,10.506539 h 3.284 v 1.0545 h -4.586 V 5.2910385 h 1.302 z"
     fill="#000000"
     id="path32" />
  <defs
     id="defs37">
    <clipPath
       id="clip0_272_1964">
      <rect
         width="123.828"
         height="19"
         fill="#ffffff"
         transform="translate(0.431152,65.5)"
         id="rect34"
         x="0"
         y="0" />
    </clipPath>
  </defs>
</svg>
