<?xml version="1.0" encoding="UTF-8" standalone="no"?>
<svg
   width="150"
   height="37.195141"
   viewBox="0 0 150 37.195141"
   fill="none"
   version="1.1"
   id="svg10"
   sodipodi:docname="Login-Hudl-IQ.svg"
   xmlns:inkscape="http://www.inkscape.org/namespaces/inkscape"
   xmlns:sodipodi="http://sodipodi.sourceforge.net/DTD/sodipodi-0.dtd"
   xmlns="http://www.w3.org/2000/svg"
   xmlns:svg="http://www.w3.org/2000/svg">
  <defs
     id="defs14" />
  <sodipodi:namedview
     id="namedview12"
     pagecolor="#ffffff"
     bordercolor="#000000"
     borderopacity="0.25"
     inkscape:showpageshadow="2"
     inkscape:pageopacity="0.0"
     inkscape:pagecheckerboard="0"
     inkscape:deskcolor="#d1d1d1"
     showgrid="false" />
  <path
     fill-rule="evenodd"
     clip-rule="evenodd"
     d="m 27.9344,22.486137 c -0.0392,0.002 -0.0766,-0.0153 -0.1005,-0.0462 -0.0237,-0.0308 -0.0306,-0.0713 -0.0184,-0.1082 0.6798,-2.1695 0.9077,-4.4532 0.6697,-6.7126 -0.0041,-0.0418 -0.0305,-0.0781 -0.0689,-0.0955 -2.2676,-1.0479 -3.7222,-3.2973 -3.7356,-5.7764998 -0.0049,-0.8346 0.1569,-1.6619 0.4758,-2.4344 0.0169,-0.0392 0.011,-0.0842 -0.0154,-0.1179 -0.3849,-0.4996 -0.7958,-0.9789 -1.2313,-1.4358 -2.4877,-2.5889 -5.734,-4.3371 -9.2795,-4.99730002 -0.0577,-0.0099 -0.0996,-0.0598 -0.0987,-0.1179 -0.0017,-0.0554 0.036,-0.1046 0.0904,-0.1178 5.0775,-1.2974 10.4751,-0.1644 14.5855,3.06150002 0.0213,0.0169 0.0477,0.0261 0.0749,0.026 0.0119,0.0017 0.0239,0.0017 0.0356,0 0.5835,-0.1745 1.1896,-0.2634 1.7989,-0.2641 2.6451,-0.0071 5.0254,1.5892 6.0023,4.025 0.9765,2.4358 0.3508,5.2156998 -1.5779,7.0092998 -0.0283,0.0262 -0.0423,0.0645 -0.0369,0.1026 0.1017,0.7399 0.1536,1.4859 0.1545,2.2328 0,0.0696 0,0.1379 -0.0092,0.2063 l -0.0084,0.1308 c -4e-4,0.0261 -0.0097,0.0515 -0.0264,0.0719 -1.9935,2.4544 -4.6398,4.3078 -7.6399,5.3509 z m -21.11316,5.9474 c -0.03223,3e-4 -0.06309,-0.0126 -0.08563,-0.0352 -3.6448,-3.6711 -5.36674,-8.8087 -4.66233,-13.9109 0.00536,-0.0381 -0.00841,-0.0764 -0.03691,-0.1025 -2.17694795,-2.0223 -2.66743195,-5.2612998 -1.18546495,-7.8277998 1.48196495,-2.5664 4.54862495,-3.7884 7.41106495,-2.9532 0.03738,0.011 0.07787,0.0031 0.10827,-0.0212 0.72015,-0.5669 1.4866,-1.0736 2.29136,-1.5149 0.0179,-0.0095 0.0379,-0.0144 0.0583,-0.0141 3.1532,0.4836 6.1064,1.8338 8.524,3.8974 0.0342,0.0289 0.0489,0.0746 0.0381,0.1178 -0.0104,0.0443 -0.0456,0.0787 -0.0905,0.0884 -2.2695,0.5071 -4.4091,1.4727 -6.2851,2.8364 -0.0347,0.0248 -0.0534,0.0662 -0.0487,0.1085 0.0228,0.2146 0.0343,0.4302 0.0344,0.646 -0.0218,3.1715998 -2.3796,5.8511998 -5.54739,6.3045998 -0.04277,0.0055 -0.0792,0.0334 -0.09521,0.0731 -0.226,0.5494 -0.42711,1.1176 -0.59482,1.6894 -1.01551,3.4298 -0.91645,7.0893 0.28314,10.4602 0.0135,0.037 0.00758,0.0781 -0.01582,0.1097 -0.02335,0.0318 -0.06113,0.0498 -0.10076,0.0483 z m 12.03116,8.7616 c -2.9818,0.0031 -5.5768,-2.02 -6.2755,-4.8925 -0.0088,-0.0375 -0.0354,-0.0681 -0.0714,-0.0824 -0.849,-0.3384 -1.6691,-0.7447 -2.4519,-1.2144 -0.0229,-0.0136 -0.0404,-0.0342 -0.05,-0.059 -1.143,-2.9367 -1.43592,-6.1316 -0.84582,-9.2247 0.00819,-0.044 0.04098,-0.0797 0.08445,-0.092 h 0.02382 c 0.03611,-0.0039 0.07201,0.0087 0.09758,0.0342 1.57617,1.6883 3.48587,3.0373 5.61057,3.9633 0.0154,0.0066 0.032,0.0097 0.0487,0.0095 0.0252,0 0.0498,-0.0078 0.0703,-0.0224 2.8055,-1.9969 6.7016,-1.4421 8.8262,1.2567 0.0227,0.0294 0.0579,0.0464 0.0951,0.0459 h 0.0143 c 0.5878,-0.079 1.1898,-0.1908 1.7749,-0.3299 3.5104,-0.8448 6.6632,-2.7636 9.0107,-5.4843 0.023,-0.0264 0.0565,-0.0416 0.0917,-0.0412 0.0198,-10e-5 0.0394,0.0048 0.057,0.0141 0.0496,0.0262 0.0738,0.0832 0.0584,0.1367 -1.4142,4.9551 -5.0381,8.997 -9.8374,10.972 -0.0362,0.0143 -0.0626,0.0449 -0.0714,0.0824 -0.6791,2.8837 -3.2721,4.9248 -6.2603,4.928 z"
     fill="#ff6300"
     id="path2" />
  <path
     fill-rule="evenodd"
     clip-rule="evenodd"
     d="M 107.238,3.8921372 V 32.823137 h 7.221 V 3.8921372 Z M 96.1983,27.624337 c -0.2604,0.1106 -0.7436,0.1474 -1.2277,0.1474 -2.0451,0 -3.161,-1.5844 -3.161,-4.9749 0,-2.8741 1.079,-4.7545 3.0872,-4.7545 0.521,0 1.0792,0.1108 1.3015,0.2216 v 9.3616 z m 0,-14.5569 c -0.692,-0.1832 -1.4038,-0.2821 -2.1199,-0.2947 -6.2839,0.0011 -9.4807,3.941 -9.4807,10.0995 0,6.8176 3.6821,10.4296 10.5252,10.4296 3.5332,0 6.5821,-0.626 8.2931,-1.4737 V 3.8886372 h -7.2165 v 9.1763998 z m -21.8008,14.2645 c -0.2974,0.1108 -0.8553,0.1838 -1.5253,0.1838 -1.3382,0 -2.0451,-0.5529 -2.0451,-1.8061 v -12.7506 h -7.2152 v 12.5668 c 0,5.5655 3.0872,7.7806 9.2606,7.7806 3.3476,0 6.8059,-0.5895 8.7405,-1.4734 v -18.874 h -7.2155 z m -21.1656,-14.7054 c -1.2206,0.0033 -2.4302,0.2283 -3.5689,0.6636 V 3.8921372 H 42.4463 V 32.823137 h 7.2155 v -14.3729 c 0.4827,-0.2002 1.0018,-0.3004 1.5253,-0.2947 1.525,0 2.1937,0.7368 2.1937,2.1008 v 12.5668 h 7.2153 v -13.3415 c 0,-4.4184 -2.528,-6.8551 -7.3642,-6.8551 z"
     fill="#000000"
     id="path4" />
  <path
     d="M 122.797,33.105737 H 119.33 V 4.0893372 h 3.467 z"
     fill="#ff6300"
     id="path6" />
  <path
     d="m 147.5,33.406637 -2.68,1.7632 -2.56,-3.8072 c -1.048,0.3607 -2.177,0.561 -3.426,0.561 -7.458,0 -11.166,-6.6931 -11.166,-14.9491 0,-8.2560998 3.708,-14.9491998 11.166,-14.9491998 7.457,0 11.166,6.6931 11.166,14.9491998 0,5.5308 -1.693,10.3802 -5.039,12.9452 z m -0.967,-16.4321 c 0,-6.6931 -2.62,-11.8631998 -7.699,-11.8631998 -5.079,0 -7.699,5.1700998 -7.699,11.8631998 0,6.693 2.62,11.8632 7.699,11.8632 5.079,0 7.699,-5.1702 7.699,-11.8632 z"
     fill="#ff6300"
     id="path8" />
</svg>
