<svg width="150" height="150" viewBox="0 0 150 150" fill="none" xmlns="http://www.w3.org/2000/svg">
<g clip-path="url(#clip0_272_2149)">
<path fill-rule="evenodd" clip-rule="evenodd" d="M11.2499 77.557C11.2355 77.557 11.2181 77.5513 11.2095 77.537C11.2008 77.5255 11.198 77.5083 11.2008 77.494C11.4747 76.6172 11.567 75.6945 11.4718 74.7833C11.4718 74.7661 11.4603 74.7518 11.4431 74.746C10.5291 74.3219 9.94379 73.4136 9.93803 72.4136C9.93803 72.0755 10.0014 71.7431 10.1283 71.4308C10.1341 71.4136 10.1341 71.3964 10.1225 71.3821C9.96691 71.1815 9.80252 70.9866 9.62666 70.8032C8.62621 69.7574 7.31727 69.0525 5.89013 68.786C5.86707 68.7831 5.84977 68.7631 5.84977 68.7373C5.84977 68.7144 5.86418 68.6943 5.88725 68.6886C7.93138 68.1642 10.1052 68.6227 11.7601 69.9264C11.7688 69.9322 11.7804 69.9379 11.789 69.9379C11.7948 69.9379 11.7976 69.9379 11.8034 69.9379C12.0369 69.8663 12.282 69.8319 12.527 69.8319C13.591 69.829 14.551 70.4737 14.9432 71.4566C15.3353 72.4394 15.0844 73.5626 14.3088 74.2876C14.2973 74.299 14.2916 74.3133 14.2945 74.3277C14.3347 74.6257 14.355 74.9265 14.3579 75.2303C14.3579 75.2589 14.3579 75.2847 14.355 75.3134V75.365C14.355 75.365 14.3464 75.385 14.3406 75.3936C13.5391 76.385 12.4723 77.1329 11.2642 77.5542H11.247L11.2499 77.557ZM2.74753 79.961C2.74753 79.961 2.72158 79.9553 2.71293 79.9467C1.24542 78.4653 0.55059 76.3879 0.836019 74.3277C0.836019 74.3133 0.833136 74.2962 0.821603 74.2876C-0.0577484 73.4709 -0.253801 72.1614 0.343005 71.1242C0.939811 70.0869 2.17379 69.594 3.32703 69.9322C3.34145 69.9379 3.35875 69.9322 3.37028 69.9236C3.66147 69.6943 3.96997 69.4909 4.29288 69.3104C4.29865 69.3075 4.30729 69.3046 4.31594 69.3046C5.58452 69.4995 6.77525 70.0439 7.74974 70.8777C7.76416 70.8892 7.76992 70.9093 7.76416 70.9265C7.76127 70.9437 7.74686 70.958 7.72667 70.9608C6.81273 71.1643 5.95067 71.5568 5.1953 72.107C5.18088 72.1156 5.17511 72.1328 5.17511 72.15C5.18377 72.2359 5.18953 72.3248 5.18953 72.4107C5.18088 73.6916 4.23234 74.7747 2.95511 74.9581C2.93781 74.9581 2.9234 74.9724 2.91763 74.9867C2.82537 75.2074 2.74465 75.4395 2.67833 75.6687C2.26892 77.0527 2.30929 78.5313 2.79365 79.8922C2.79943 79.9066 2.79654 79.9238 2.78789 79.9352C2.77924 79.9467 2.76195 79.9553 2.74753 79.9553V79.961ZM7.59117 83.4998C6.39179 83.4998 5.34522 82.6832 5.06268 81.5227C5.05979 81.5083 5.04826 81.494 5.03384 81.4883C4.69075 81.3508 4.36207 81.1874 4.04781 80.9983C4.03916 80.9926 4.03052 80.984 4.02763 80.9754C3.56633 79.7892 3.44812 78.4997 3.68742 77.2504C3.69031 77.2332 3.70472 77.2189 3.72202 77.2132H3.73067C3.74509 77.2132 3.7595 77.216 3.77103 77.2275C4.40532 77.9094 5.17511 78.4539 6.0314 78.8293C6.03717 78.8293 6.04293 78.8321 6.05159 78.8321C6.06312 78.8321 6.07176 78.8292 6.08042 78.8235C7.2106 78.0183 8.77902 78.2418 9.6353 79.3307C9.64395 79.3421 9.65837 79.3507 9.67278 79.3478H9.67855C9.91497 79.3163 10.1571 79.2705 10.3935 79.2131C11.8063 78.8721 13.0777 78.0957 14.0234 76.9982C14.0321 76.9867 14.0465 76.981 14.0609 76.981C14.0696 76.981 14.0782 76.981 14.084 76.9867C14.1041 76.9982 14.1128 77.0211 14.107 77.0412C13.5362 79.0413 12.0773 80.6745 10.1456 81.4711C10.1312 81.4768 10.1196 81.4883 10.1168 81.5055C9.84288 82.6689 8.79919 83.4941 7.59693 83.4969L7.59117 83.4998Z" fill="#FF6300"/>
<path d="M24.1972 81.5232H21.2885V76.431C21.2885 75.8785 21.0186 75.5799 20.4039 75.5799C20.1789 75.5799 19.9541 75.6247 19.7891 75.6993V81.5232H16.8804V69.8008H19.7891V73.6087C20.2089 73.4444 20.7187 73.3399 21.2285 73.3399C23.1777 73.3399 24.1972 74.3255 24.1972 76.1174V81.5232ZM32.8639 81.12C32.0842 81.4784 30.6899 81.7173 29.3404 81.7173C26.8515 81.7173 25.607 80.8214 25.607 78.5665V73.4743H28.5158V78.6411C28.5158 79.1488 28.8007 79.3728 29.3404 79.3728C29.6103 79.3728 29.8352 79.343 29.9552 79.2982V73.4743H32.8639V81.12ZM41.607 81.12C40.9173 81.4635 39.6878 81.7173 38.2635 81.7173C35.5047 81.7173 34.0203 80.2539 34.0203 77.4913C34.0203 74.9975 35.3097 73.3996 37.8436 73.3996C38.1285 73.3996 38.4883 73.4594 38.6982 73.5191V69.8008H41.607V81.12ZM38.6982 79.4177V75.6247C38.6083 75.5799 38.3833 75.5351 38.1734 75.5351C37.3639 75.5351 36.929 76.2966 36.929 77.4614C36.929 78.8352 37.3788 79.4774 38.2034 79.4774C38.3984 79.4774 38.5933 79.4624 38.6982 79.4177ZM45.9984 81.5232H43.0897V69.8008H45.9984V81.5232Z" fill="black"/>
<path d="M49.733 81.6875C51.6371 81.6875 52.7466 80.7617 52.7466 79.3728C52.7466 77.8646 51.6071 77.4166 50.4077 76.9686C49.553 76.6551 48.8183 76.3564 48.8183 75.4753C48.8183 74.8033 49.3731 74.2807 50.3476 74.2807C50.9924 74.2807 51.5922 74.4748 52.0419 74.7585L52.4768 73.8775C51.862 73.5191 51.0523 73.31 50.2277 73.31C48.5185 73.31 47.5439 74.221 47.5439 75.4753C47.5439 76.9238 48.6684 77.4315 49.8079 77.8497C50.7525 78.1932 51.4422 78.5217 51.4422 79.3728C51.4422 80.1643 50.7525 80.672 49.718 80.672C49.0732 80.672 48.3236 80.463 47.7837 80.1643L47.334 81.12C48.0537 81.4934 48.8933 81.6875 49.733 81.6875Z" fill="#FF6300"/>
<path d="M56.6185 81.6128C56.9634 81.6128 57.2783 81.553 57.4432 81.4784V80.4331C57.3232 80.4779 57.1133 80.5077 56.9184 80.5077C56.2587 80.5077 55.704 80.1941 55.704 79.3728V74.4151H57.4432V73.4743H55.704V71.1298L54.4895 71.533V73.4743H53.32V74.4151H54.4895V79.4326C54.4895 80.896 55.2992 81.6128 56.6185 81.6128Z" fill="#FF6300"/>
<path d="M68.5091 81.6128C68.8539 81.6128 69.1688 81.553 69.3337 81.4784V80.4331C69.2138 80.4779 69.0039 80.5077 68.809 80.5077C68.1492 80.5077 67.5945 80.1941 67.5945 79.3728V74.4151H69.3337V73.4743H67.5945V71.1298L66.38 71.533V73.4743H65.2105V74.4151H66.38V79.4326C66.38 80.896 67.1897 81.6128 68.5091 81.6128Z" fill="#FF6300"/>
<path d="M72.3426 81.6875C74.2468 81.6875 75.3564 80.7617 75.3564 79.3728C75.3564 77.8646 74.2168 77.4166 73.0173 76.9686C72.1627 76.6551 71.428 76.3564 71.428 75.4753C71.428 74.8033 71.9828 74.2807 72.9574 74.2807C73.602 74.2807 74.2018 74.4748 74.6517 74.7585L75.0864 73.8775C74.4718 73.5191 73.6621 73.31 72.8374 73.31C71.1281 73.31 70.1535 74.221 70.1535 75.4753C70.1535 76.9238 71.2781 77.4315 72.4176 77.8497C73.3622 78.1932 74.0519 78.5217 74.0519 79.3728C74.0519 80.1643 73.3622 80.672 72.3276 80.672C71.6829 80.672 70.9332 80.463 70.3935 80.1643L69.9436 81.12C70.6633 81.4934 71.503 81.6875 72.3426 81.6875Z" fill="#FF6300"/>
<path d="M101.689 81.5232H102.933V75.8785C102.933 74.3106 101.838 73.31 100.174 73.31C98.99 73.31 98.0304 73.773 97.5356 74.2359C97.1009 73.7282 96.2312 73.31 94.9718 73.31C93.9222 73.31 92.9627 73.549 92.1829 73.8775V81.5232H93.4425V74.6092C93.8473 74.445 94.402 74.3255 95.0467 74.3255C96.1712 74.3255 96.9359 74.878 96.9359 75.7889V81.5232H98.1804V75.0124C98.5702 74.5943 99.1849 74.3255 99.935 74.3255C100.954 74.3255 101.689 74.9377 101.689 75.983V81.5232Z" fill="#FF6300"/>
<path fill-rule="evenodd" clip-rule="evenodd" d="M64.3187 81.12C63.7489 81.4336 62.5944 81.6875 61.5299 81.6875C59.3109 81.6875 58.2013 80.7466 58.2013 79.2236C58.2013 76.9238 60.6902 76.5804 63.1342 76.4459V75.8337C63.1342 74.6391 62.3395 74.2658 61.215 74.2658C60.4654 74.2658 59.5357 74.5047 59.011 74.7585L58.6811 73.8775C59.2959 73.5938 60.3154 73.31 61.3199 73.31C63.1342 73.31 64.3187 74.0268 64.3187 75.9383V81.12ZM63.1342 77.312V80.4928C62.8493 80.6272 62.1146 80.7466 61.4999 80.7466C60.0905 80.7466 59.3858 80.1344 59.3858 79.1936C59.3858 77.5298 61.3149 77.4177 63.1063 77.3137L63.1342 77.312Z" fill="#FF6300"/>
<path fill-rule="evenodd" clip-rule="evenodd" d="M83.0498 77.342C83.0498 80.3733 81.4306 81.6875 79.1666 81.6875C78.177 81.6875 77.2173 81.4336 76.6027 81.12V69.8008H77.8621V73.7132C78.2819 73.5191 78.9266 73.3548 79.5414 73.3548C81.6255 73.3548 83.0498 74.8631 83.0498 77.342ZM79.3765 74.3404C80.8308 74.3404 81.7904 75.4903 81.7904 77.4166C81.7904 79.7313 80.6659 80.672 79.2265 80.672C78.6718 80.672 78.132 80.5525 77.8621 80.4182V74.6689C78.2369 74.4748 78.8367 74.3404 79.3765 74.3404Z" fill="#FF6300"/>
<path fill-rule="evenodd" clip-rule="evenodd" d="M90.8867 77.4913C90.8867 79.8805 89.6872 81.6875 87.4533 81.6875C85.2193 81.6875 84.0198 79.8805 84.0198 77.4913C84.0198 75.102 85.2193 73.31 87.4533 73.31C89.6872 73.31 90.8867 75.102 90.8867 77.4913ZM87.4533 74.3255C88.9226 74.3255 89.6423 75.6247 89.6423 77.4763C89.6423 79.328 88.9226 80.6571 87.4533 80.6571C85.9839 80.6571 85.2642 79.328 85.2642 77.4763C85.2642 75.6247 85.9839 74.3255 87.4533 74.3255Z" fill="#FF6300"/>
<path fill-rule="evenodd" clip-rule="evenodd" d="M110.974 77.342C110.974 80.3733 109.355 81.6875 107.091 81.6875C106.102 81.6875 105.142 81.4336 104.527 81.12V69.8008H105.786V73.7132C106.206 73.5191 106.851 73.3548 107.465 73.3548C109.55 73.3548 110.974 74.8631 110.974 77.342ZM107.3 74.3404C108.755 74.3404 109.715 75.4903 109.715 77.4166C109.715 79.7313 108.59 80.672 107.151 80.672C106.596 80.672 106.056 80.5525 105.786 80.4182V74.6689C106.161 74.4748 106.761 74.3404 107.3 74.3404Z" fill="#FF6300"/>
</g>
<path d="M150 73.5264V74.5487H147.936V79.6053H146.647V74.5487H144.573V73.5264H150Z" fill="black"/>
<path d="M141.35 73.4341C141.91 73.4341 142.402 73.5293 142.826 73.7196C143.249 73.91 143.611 74.1924 143.91 74.567L143.19 75.3867C142.935 75.0674 142.655 74.8341 142.349 74.6867C142.051 74.5332 141.702 74.4565 141.303 74.4565C141.042 74.4565 140.824 74.4902 140.649 74.5578C140.481 74.6253 140.357 74.7143 140.276 74.8249C140.201 74.9354 140.164 75.0582 140.164 75.1933C140.164 75.3591 140.229 75.5003 140.36 75.617C140.49 75.7275 140.715 75.8196 141.032 75.8933L142.181 76.1512C142.792 76.2863 143.228 76.4889 143.489 76.7591C143.757 77.0231 143.891 77.367 143.891 77.7907C143.891 78.1898 143.785 78.5336 143.573 78.8222C143.361 79.1047 143.066 79.3227 142.686 79.4762C142.306 79.6236 141.87 79.6972 141.378 79.6972C140.948 79.6972 140.553 79.6481 140.192 79.5499C139.837 79.4455 139.519 79.3043 139.239 79.1262C138.958 78.9481 138.725 78.7424 138.538 78.5091L139.267 77.6525C139.41 77.849 139.587 78.024 139.799 78.1775C140.011 78.331 140.251 78.4538 140.519 78.5459C140.793 78.6319 141.079 78.6749 141.378 78.6749C141.633 78.6749 141.848 78.6472 142.023 78.592C142.203 78.5306 142.337 78.4477 142.424 78.3433C142.518 78.2328 142.564 78.1007 142.564 77.9472C142.564 77.7876 142.508 77.6525 142.396 77.542C142.29 77.4253 142.091 77.3363 141.798 77.2749L140.547 76.9986C140.185 76.9126 139.874 76.8021 139.612 76.667C139.357 76.5257 139.161 76.3477 139.024 76.1328C138.893 75.9117 138.828 75.6507 138.828 75.3499C138.828 74.9876 138.927 74.6622 139.127 74.3736C139.326 74.085 139.612 73.8578 139.986 73.692C140.366 73.52 140.821 73.4341 141.35 73.4341Z" fill="black"/>
<path d="M137.309 73.5264V79.6053H136.02V73.5264H137.309Z" fill="black"/>
<path d="M132.072 73.4341C132.633 73.4341 133.125 73.5293 133.548 73.7196C133.972 73.91 134.333 74.1924 134.632 74.567L133.912 75.3867C133.657 75.0674 133.377 74.8341 133.072 74.6867C132.773 74.5332 132.424 74.4565 132.025 74.4565C131.764 74.4565 131.546 74.4902 131.371 74.5578C131.203 74.6253 131.079 74.7143 130.998 74.8249C130.923 74.9354 130.886 75.0582 130.886 75.1933C130.886 75.3591 130.951 75.5003 131.082 75.617C131.213 75.7275 131.437 75.8196 131.754 75.8933L132.903 76.1512C133.514 76.2863 133.95 76.4889 134.211 76.7591C134.479 77.0231 134.613 77.367 134.613 77.7907C134.613 78.1898 134.507 78.5336 134.295 78.8222C134.084 79.1047 133.788 79.3227 133.408 79.4762C133.028 79.6236 132.592 79.6972 132.1 79.6972C131.67 79.6972 131.275 79.6481 130.914 79.5499C130.559 79.4455 130.241 79.3043 129.961 79.1262C129.681 78.9481 129.447 78.7424 129.26 78.5091L129.989 77.6525C130.132 77.849 130.31 78.024 130.521 78.1775C130.733 78.331 130.973 78.4538 131.241 78.5459C131.515 78.6319 131.801 78.6749 132.1 78.6749C132.355 78.6749 132.57 78.6472 132.745 78.592C132.925 78.5306 133.059 78.4477 133.146 78.3433C133.24 78.2328 133.286 78.1007 133.286 77.9472C133.286 77.7876 133.23 77.6525 133.118 77.542C133.012 77.4253 132.813 77.3363 132.52 77.2749L131.269 76.9986C130.907 76.9126 130.596 76.8021 130.335 76.667C130.079 76.5257 129.883 76.3477 129.746 76.1328C129.615 75.9117 129.55 75.6507 129.55 75.3499C129.55 74.9876 129.649 74.6622 129.849 74.3736C130.048 74.085 130.335 73.8578 130.708 73.692C131.088 73.52 131.543 73.4341 132.072 73.4341Z" fill="black"/>
<path d="M125.874 73.4341C126.434 73.4341 126.926 73.5293 127.35 73.7196C127.773 73.91 128.135 74.1924 128.433 74.567L127.714 75.3867C127.459 75.0674 127.179 74.8341 126.873 74.6867C126.574 74.5332 126.226 74.4565 125.827 74.4565C125.566 74.4565 125.348 74.4902 125.173 74.5578C125.005 74.6253 124.881 74.7143 124.8 74.8249C124.725 74.9354 124.687 75.0582 124.687 75.1933C124.687 75.3591 124.753 75.5003 124.884 75.617C125.014 75.7275 125.239 75.8196 125.556 75.8933L126.705 76.1512C127.316 76.2863 127.751 76.4889 128.013 76.7591C128.281 77.0231 128.415 77.367 128.415 77.7907C128.415 78.1898 128.309 78.5336 128.097 78.8222C127.885 79.1047 127.59 79.3227 127.21 79.4762C126.83 79.6236 126.394 79.6972 125.902 79.6972C125.472 79.6972 125.077 79.6481 124.715 79.5499C124.36 79.4455 124.043 79.3043 123.763 79.1262C123.482 78.9481 123.249 78.7424 123.062 78.5091L123.791 77.6525C123.934 77.849 124.111 78.024 124.323 78.1775C124.535 78.331 124.775 78.4538 125.042 78.5459C125.316 78.6319 125.603 78.6749 125.902 78.6749C126.157 78.6749 126.372 78.6472 126.546 78.592C126.727 78.5306 126.861 78.4477 126.948 78.3433C127.042 78.2328 127.088 78.1007 127.088 77.9472C127.088 77.7876 127.032 77.6525 126.92 77.542C126.814 77.4253 126.615 77.3363 126.322 77.2749L125.07 76.9986C124.709 76.9126 124.398 76.8021 124.136 76.667C123.881 76.5257 123.685 76.3477 123.548 76.1328C123.417 75.9117 123.352 75.6507 123.352 75.3499C123.352 74.9876 123.451 74.6622 123.651 74.3736C123.85 74.085 124.136 73.8578 124.51 73.692C124.89 73.52 125.344 73.4341 125.874 73.4341Z" fill="black"/>
<path d="M122.566 79.6053H121.231L120.717 78.1224H118.353L117.84 79.6053H116.522L118.774 73.5264H120.315L122.566 79.6053ZM118.643 77.1829H120.427L119.53 74.5303L118.643 77.1829Z" fill="black"/>
<defs>
<clipPath id="clip0_272_2149">
<rect width="112.039" height="17" fill="white" transform="translate(0 66.5)"/>
</clipPath>
</defs>
</svg>
