<?xml version="1.0" encoding="UTF-8" standalone="no"?>
<svg
   width="148.575"
   height="20.457153"
   viewBox="0 0 148.575 20.457153"
   fill="none"
   version="1.1"
   id="svg31"
   xmlns="http://www.w3.org/2000/svg"
   xmlns:svg="http://www.w3.org/2000/svg">
  <g
     clip-path="url(#clip0_256_2027)"
     id="g24"
     transform="translate(-2.2044183e-7,-66.116943)">
    <path
       fill-rule="evenodd"
       clip-rule="evenodd"
       d="m 15.0615,78.4821 c -0.0193,0 -0.0425,-0.0078 -0.0541,-0.0274 -0.0115,-0.0156 -0.0154,-0.039 -0.0115,-0.0585 0.3667,-1.1939 0.4902,-2.4503 0.3628,-3.691 0,-0.0234 -0.0154,-0.0429 -0.0385,-0.0507 -1.2237,-0.5775 -2.0073,-1.8143 -2.015,-3.176 0,-0.4604 0.0849,-0.913 0.2547,-1.3383 0.0079,-0.0234 0.0079,-0.0468 -0.0077,-0.0663 C 13.3439,69.8008 13.1238,69.5355 12.8883,69.2857 11.5489,67.8616 9.7965,66.9018 7.88581,66.539 7.85494,66.5351 7.83178,66.5078 7.83178,66.4726 c 0,-0.0312 0.01929,-0.0585 0.05018,-0.0663 2.73674,-0.714 5.64714,-0.0897 7.86274,1.6855 0.0115,0.0078 0.0271,0.0156 0.0386,0.0156 0.0078,0 0.0116,0 0.0193,0 0.3126,-0.0975 0.6408,-0.1443 0.9688,-0.1443 1.4244,-0.0039 2.7097,0.874 3.2348,2.2122 0.5249,1.3383 0.1891,2.8678 -0.8492,3.8549 -0.0155,0.0156 -0.0232,0.0351 -0.0193,0.0546 0.0539,0.4058 0.081,0.8155 0.0849,1.229 0,0.0391 0,0.0742 -0.0039,0.1132 v 0.0702 c 0,0 -0.0115,0.0273 -0.0192,0.039 -1.0732,1.35 -2.5014,2.3684 -4.1187,2.942 H 15.0577 Z M 3.67844,81.7555 c 0,0 -0.03474,-0.0078 -0.04631,-0.0195 -1.96474,-2.0171 -2.89499,-4.8459 -2.51285,-7.6512 0,-0.0195 -0.00386,-0.0429 -0.0193,-0.0546 -1.1772946,-1.112 -1.439773,-2.8951 -0.640758,-4.3075 0.799018,-1.4124 2.451088,-2.0835 3.995078,-1.6231 0.0193,0.0078 0.04246,0 0.0579,-0.0117 0.38985,-0.3121 0.80288,-0.5891 1.23519,-0.8349 0.00772,-0.0039 0.01929,-0.0078 0.03088,-0.0078 1.69839,0.2653 3.29256,1.0066 4.59723,2.142 0.0193,0.0156 0.027,0.0429 0.0193,0.0663 -0.0039,0.0234 -0.0232,0.0429 -0.0502,0.0468 -1.22359,0.2771 -2.37773,0.8116 -3.38904,1.5607 -0.0193,0.0117 -0.02702,0.0351 -0.02702,0.0585 0.01158,0.1171 0.0193,0.238 0.0193,0.3551 -0.01158,1.744 -1.28151,3.2189 -2.99148,3.4686 -0.02316,0 -0.04246,0.0195 -0.05018,0.039 -0.12352,0.3004 -0.23159,0.6165 -0.32038,0.9286 -0.54812,1.8845 -0.49407,3.8978 0.15439,5.751 0.00774,0.0196 0.00387,0.043 -0.00771,0.0586 -0.01158,0.0156 -0.03473,0.0273 -0.05404,0.0273 z m 6.48476,4.8186 c -1.60575,0 -3.00693,-1.1119 -3.38519,-2.6922 C 6.77414,83.8624 6.7587,83.8429 6.7394,83.8351 6.28007,83.6479 5.84002,83.4254 5.41929,83.1679 5.40771,83.1601 5.39613,83.1484 5.39227,83.1367 4.77468,81.5215 4.61641,79.7657 4.93679,78.0646 4.94066,78.0412 4.95995,78.0217 4.98311,78.0138 h 0.01158 c 0.01931,0 0.0386,0.004 0.05404,0.0196 0.84919,0.9284 1.87981,1.6699 3.02623,2.181 0.00771,0 0.01543,0.0039 0.02702,0.0039 0.01544,0 0.02701,-0.0039 0.0386,-0.0117 1.51311,-1.0964 3.61292,-0.7922 4.75932,0.6905 0.0116,0.0157 0.0309,0.0274 0.0502,0.0235 h 0.0077 c 0.3165,-0.043 0.6408,-0.1054 0.9573,-0.1835 1.8914,-0.4643 3.5936,-1.5216 4.8597,-3.016 0.0116,-0.0156 0.0309,-0.0234 0.0501,-0.0234 0.0117,0 0.0233,0 0.031,0.0078 0.027,0.0156 0.0385,0.0469 0.0308,0.0742 -0.7642,2.7234 -2.7174,4.9474 -5.3035,6.032 -0.0193,0.0078 -0.0348,0.0234 -0.0387,0.0468 -0.3667,1.5842 -1.764,2.7078 -3.3736,2.7117 z"
       fill="#ff6300"
       id="path2" />
    <path
       d="m 66.5839,84.1062 c 2.5493,0 4.0347,-1.2606 4.0347,-3.1518 0,-2.0535 -1.5255,-2.6636 -3.1314,-3.2737 -1.1442,-0.4269 -2.1279,-0.8336 -2.1279,-2.0333 0,-0.915 0.7428,-1.6267 2.0475,-1.6267 0.8632,0 1.6662,0.2644 2.2683,0.6507 l 0.5822,-1.1997 c -0.823,-0.488 -1.9071,-0.7726 -3.011,-0.7726 -2.2884,0 -3.5932,1.2403 -3.5932,2.9483 0,1.9724 1.5056,2.6637 3.0311,3.2331 1.2647,0.4677 2.188,0.9151 2.188,2.0739 0,1.0778 -0.9233,1.7691 -2.3084,1.7691 -0.8632,0 -1.8668,-0.2846 -2.5896,-0.6913 l -0.6021,1.3014 c 0.9635,0.5083 2.0876,0.7726 3.2118,0.7726 z"
       fill="#ff6300"
       id="path4" />
    <path
       d="m 75.8024,84.0046 c 0.4617,0 0.8833,-0.0814 1.1041,-0.183 v -1.4234 c -0.1606,0.061 -0.4416,0.1017 -0.7026,0.1017 -0.8832,0 -1.6259,-0.4271 -1.6259,-1.5455 v -6.7507 h 2.3285 v -1.281 H 74.578 v -3.1923 l -1.626,0.549 v 2.6433 h -1.5658 v 1.281 h 1.5658 v 6.8322 c 0,1.9926 1.084,2.9687 2.8504,2.9687 z"
       fill="#ff6300"
       id="path6" />
    <path
       d="m 91.7217,84.0046 c 0.4617,0 0.8832,-0.0814 1.1041,-0.183 v -1.4234 c -0.1607,0.061 -0.4417,0.1017 -0.7026,0.1017 -0.8833,0 -1.626,-0.4271 -1.626,-1.5455 v -6.7507 h 2.3286 v -1.281 h -2.3286 v -3.1923 l -1.6259,0.549 v 2.6433 h -1.5658 v 1.281 h 1.5658 v 6.8322 c 0,1.9926 1.084,2.9687 2.8504,2.9687 z"
       fill="#ff6300"
       id="path8" />
    <path
       d="m 96.8541,84.1062 c 2.5493,0 4.0349,-1.2606 4.0349,-3.1518 0,-2.0535 -1.5257,-2.6636 -3.1316,-3.2737 -1.1442,-0.4269 -2.1277,-0.8336 -2.1277,-2.0333 0,-0.915 0.7426,-1.6267 2.0475,-1.6267 0.863,0 1.666,0.2644 2.2683,0.6507 l 0.5825,-1.1997 c -0.8234,-0.488 -1.9074,-0.7726 -3.0115,-0.7726 -2.2884,0 -3.5932,1.2403 -3.5932,2.9483 0,1.9724 1.5056,2.6637 3.0312,3.2331 1.2646,0.4677 2.188,0.9151 2.188,2.0739 0,1.0778 -0.9234,1.7691 -2.3085,1.7691 -0.8632,0 -1.8668,-0.2846 -2.5894,-0.6913 l -0.6023,1.3014 c 0.9635,0.5083 2.0877,0.7726 3.2118,0.7726 z"
       fill="#ff6300"
       id="path10" />
    <path
       d="m 136.143,83.8826 h 1.666 v -7.6862 c 0,-2.135 -1.465,-3.4973 -3.694,-3.4973 -1.585,0 -2.87,0.6303 -3.532,1.2607 -0.582,-0.6914 -1.746,-1.2607 -3.432,-1.2607 -1.406,0 -2.69,0.3253 -3.734,0.7726 v 10.4109 h 1.686 v -9.4145 c 0.542,-0.2237 1.285,-0.3864 2.148,-0.3864 1.505,0 2.529,0.7524 2.529,1.9927 v 7.8082 h 1.666 v -8.8655 c 0.522,-0.5694 1.345,-0.9354 2.349,-0.9354 1.365,0 2.348,0.8337 2.348,2.2571 z"
       fill="#ff6300"
       id="path12" />
    <path
       fill-rule="evenodd"
       clip-rule="evenodd"
       d="m 86.1115,83.3336 c -0.7628,0.4269 -2.3085,0.7726 -3.7337,0.7726 -2.9709,0 -4.4564,-1.2811 -4.4564,-3.355 0,-3.1314 3.3323,-3.5991 6.6043,-3.7821 v -0.8337 c 0,-1.6266 -1.064,-2.135 -2.5694,-2.135 -1.0037,0 -2.2483,0.3253 -2.9509,0.671 l -0.4416,-1.1997 c 0.8231,-0.3863 2.1881,-0.7726 3.5329,-0.7726 2.429,0 4.0148,0.976 4.0148,3.5787 z m -1.5858,-5.1852 v 4.3311 c -0.3815,0.1831 -1.3651,0.3456 -2.188,0.3456 -1.887,0 -2.8305,-0.8336 -2.8305,-2.1147 0,-2.2655 2.5828,-2.4181 4.9812,-2.5598 z"
       fill="#ff6300"
       id="path14" />
    <path
       fill-rule="evenodd"
       clip-rule="evenodd"
       d="m 111.189,78.1892 c 0,4.1276 -2.168,5.917 -5.199,5.917 -1.325,0 -2.61,-0.3457 -3.432,-0.7726 V 67.9207 h 1.686 v 5.3274 c 0.562,-0.2644 1.425,-0.488 2.248,-0.488 2.79,0 4.697,2.0537 4.697,5.4291 z m -4.918,-4.0871 c 1.947,0 3.232,1.5657 3.232,4.1887 0,3.1518 -1.506,4.4327 -3.433,4.4327 -0.742,0 -1.465,-0.1627 -1.826,-0.3456 v -7.8285 c 0.502,-0.2643 1.305,-0.4473 2.027,-0.4473 z"
       fill="#ff6300"
       id="path16" />
    <path
       fill-rule="evenodd"
       clip-rule="evenodd"
       d="m 121.681,78.3925 c 0,3.2533 -1.606,5.7137 -4.596,5.7137 -2.991,0 -4.597,-2.4604 -4.597,-5.7137 0,-3.2534 1.606,-5.6934 4.597,-5.6934 2.99,0 4.596,2.44 4.596,5.6934 z m -4.596,-4.3108 c 1.967,0 2.93,1.7691 2.93,4.2904 0,2.5214 -0.963,4.3311 -2.93,4.3311 -1.968,0 -2.931,-1.8097 -2.931,-4.3311 0,-2.5213 0.963,-4.2904 2.931,-4.2904 z"
       fill="#ff6300"
       id="path18" />
    <path
       fill-rule="evenodd"
       clip-rule="evenodd"
       d="m 148.575,78.1892 c 0,4.1276 -2.169,5.917 -5.199,5.917 -1.325,0 -2.609,-0.3457 -3.433,-0.7726 V 67.9207 h 1.686 v 5.3274 c 0.562,-0.2644 1.425,-0.488 2.248,-0.488 2.791,0 4.698,2.0537 4.698,5.4291 z m -4.919,-4.0871 c 1.948,0 3.233,1.5657 3.233,4.1887 0,3.1518 -1.506,4.4327 -3.433,4.4327 -0.743,0 -1.466,-0.1627 -1.827,-0.3456 v -7.8285 c 0.502,-0.2643 1.304,-0.4473 2.027,-0.4473 z"
       fill="#ff6300"
       id="path20" />
    <path
       d="m 32.3956,83.8826 h -3.8943 v -6.9339 c 0,-0.7523 -0.3614,-1.1589 -1.1843,-1.1589 -0.3012,0 -0.6023,0.061 -0.8231,0.1626 v 7.9302 H 22.5996 V 67.9207 h 3.8943 v 5.185 c 0.562,-0.2236 1.2445,-0.366 1.927,-0.366 2.6097,0 3.9747,1.342 3.9747,3.7821 z m 11.6031,-0.549 c -1.0439,0.488 -2.9107,0.8133 -4.7173,0.8133 -3.3322,0 -4.9984,-1.22 -4.9984,-4.2904 v -6.9338 h 3.8943 v 7.0354 c 0,0.6914 0.3814,0.9963 1.1041,0.9963 0.3613,0 0.6624,-0.0406 0.823,-0.1016 v -7.9301 h 3.8943 z m 11.7053,0 c -0.9233,0.4677 -2.5694,0.8133 -4.4763,0.8133 -3.6935,0 -5.6809,-1.9927 -5.6809,-5.7544 0,-3.3957 1.7264,-5.5714 5.1188,-5.5714 0.3814,0 0.8631,0.0813 1.1441,0.1626 v -5.063 h 3.8943 z m -3.8943,-2.3181 v -5.1647 c -0.1203,-0.061 -0.4215,-0.122 -0.7025,-0.122 -1.0839,0 -1.6661,1.037 -1.6661,2.623 0,1.8707 0.6023,2.745 1.7062,2.745 0.2611,0 0.522,-0.0203 0.6624,-0.0813 z m 9.7737,2.8671 H 57.6891 V 67.9207 h 3.8943 z"
       fill="#000000"
       id="path22" />
  </g>
  <defs
     id="defs29">
    <clipPath
       id="clip0_256_2027">
      <rect
         width="150"
         height="23.1481"
         fill="#ffffff"
         transform="translate(0,63.426)"
         id="rect26"
         x="0"
         y="0" />
    </clipPath>
  </defs>
</svg>
