<svg id="Layer_1" data-name="Layer 1" xmlns="http://www.w3.org/2000/svg" viewBox="0 0 511.63 73"><defs><style>.cls-1{fill:#e21017;}</style></defs><path class="cls-1" d="M0,48.75H15.29c0,6.78,5.6,10,11.8,10,5.71,0,11.29-3,11.29-8.25,0-5.43-6.39-6.93-14-8.7C13.81,39.24,1,36.18,1,21.07,1,7.62,10.88,0,26.41,0,42.53,0,51.69,8.65,51.69,22.62h-15c0-6-5-8.87-10.66-8.87-4.91,0-9.89,2.08-9.89,6.67,0,4.94,6.09,6.43,13.51,8.21,10.69,2.7,24.11,6,24.11,21.74,0,15.15-12.06,22.5-26.58,22.5C11.09,72.87,0,63.82,0,48.75Z"/><path class="cls-1" d="M92.82,58.45v13H82.43c-11.9,0-19.22-7.31-19.22-19.31v-23H53.43V26L74.8,3.26h2.79V17.38H92.52V29.14H77.84V50.22c0,5.22,3,8.23,8.33,8.23Z"/><path class="cls-1" d="M153.37,17.3V71.39H141.9l-1.25-4.84A26.3,26.3,0,0,1,123.12,73c-16.27,0-28.38-12.28-28.38-28.66s12.11-28.49,28.38-28.49a26.39,26.39,0,0,1,17.77,6.62l1.56-5.17ZM139,44.34a14.74,14.74,0,1,0-29.47,0,14.74,14.74,0,1,0,29.47,0Z"/><path class="cls-1" d="M196.5,58.45v13H186.11c-11.9,0-19.21-7.31-19.21-19.31v-23h-9.78V26L178.48,3.26h2.8V17.38H196.2V29.14H181.52V50.22c0,5.22,3,8.23,8.34,8.23Z"/><path class="cls-1" d="M222.7,73c-13.58,0-22.65-7.75-22.73-19.34h14.26c.08,4.81,3.77,7.22,9,7.22,4.06,0,7.7-1.84,7.7-5.46s-4.69-4.81-10.41-5.77c-8.65-1.44-19.64-3.75-19.64-16.5,0-10.24,8.71-17.3,21.77-17.3s21.63,7.26,21.68,18.07H230.46c-.05-4.29-3.07-6.42-8.17-6.42-4.55,0-7.24,2.09-7.24,5.19,0,3.6,4.62,4.44,10.24,5.46,8.82,1.58,20.09,3.45,20.09,16.63,0,11-9,18.22-22.69,18.22Z"/><path class="cls-1" d="M292.64,34.49c6.19,3.25,9.71,9.33,9.71,16.75,0,11.24-9.89,20.23-22.08,20.23h-29.8V1.35h29c12.09,0,21.08,7.72,21.08,18a18.45,18.45,0,0,1-7.9,15.11Zm-13.8,23.06c5,0,8.28-3.3,8.28-7.91s-3.29-7.82-8.28-7.82H265.37V57.55Zm7-35.8c0-4.4-3.05-7.48-7.81-7.48H265.38v15H278c4.78,0,7.81-3.1,7.81-7.48Z"/><path class="cls-1" d="M305.22,44.43c0-16.41,12.48-28.58,29.24-28.58S363.7,28,363.7,44.43,351.13,73,334.46,73,305.22,60.74,305.22,44.43Zm43.66,0c0-8.76-6-14.83-14.42-14.83S320.05,35.67,320,44.43s6,14.82,14.42,14.82S348.88,53.19,348.88,44.43Z"/><path class="cls-1" d="M448.27,37.55V71.47H433.64V40c0-7.22-2.83-11-8.13-11-6.53,0-10.4,4.8-10.4,13.27V71.47H400.85V40c0-7.22-2.75-11-8-11-6.61,0-10.56,4.8-10.56,13.27V71.47H367.67V17.38h10.22l2.74,6.71a20.8,20.8,0,0,1,16.14-8c6.88,0,12.57,3.22,15.7,8.66a20.48,20.48,0,0,1,16.75-8.66C440.41,16.09,448.27,24.87,448.27,37.55Z"/><path class="cls-1" d="M511.63,44.31c0,16.37-11.94,28.57-28.43,28.57a25.91,25.91,0,0,1-16.94-6l-1.73,4.52h-10.8V13.61L466.54,0h1.9l-.08,20.2a26.05,26.05,0,0,1,14.84-4.46C499.69,15.74,511.63,27.92,511.63,44.31Zm-14.9,0a14.74,14.74,0,1,0-29.47,0,14.74,14.74,0,1,0,29.47,0Z"/></svg>